<svg id="Grupo_65" data-name="Grupo 65" xmlns="http://www.w3.org/2000/svg" width="301.969" height="44.628" viewBox="0 0 301.969 44.628">
  <rect id="Ret창ngulo_2" data-name="Ret창ngulo 2" width="149.331" height="43.716" transform="translate(150.984 0.089)" fill="#fff"/>
  <g id="Grupo_45" data-name="Grupo 45" transform="translate(0 0)">
    <rect id="Ret창ngulo_3" data-name="Ret창ngulo 3" width="152.236" height="44.628" transform="translate(0)" fill="#00c48c"/>
  </g>
  <g id="Grupo_46" data-name="Grupo 46" transform="translate(148.065 0)">
    <path id="Caminho_18" data-name="Caminho 18" d="M1098.009-354.855H944.1v-44.628h153.9Zm-152.236-1.668h150.567v-41.292H945.773Z" transform="translate(-944.105 399.483)" fill="#00c48c"/>
  </g>
  <g id="Grupo_55" data-name="Grupo 55" transform="translate(8.332 12.574)">
    <g id="Grupo_47" data-name="Grupo 47" transform="translate(0 0.32)">
      <path id="Caminho_19" data-name="Caminho 19" d="M198.82-309.382a.437.437,0,0,1-.494.494h-1.6a.785.785,0,0,1-.668-.378L185.8-325.132v15.75q0,.494-.465.494h-1.482a.437.437,0,0,1-.494-.494v-19.44q0-.465.494-.465h1.569a.782.782,0,0,1,.7.349l10.258,15.9v-15.779a.411.411,0,0,1,.465-.465h1.482q.494,0,.494.436Z" transform="translate(-183.361 329.287)" fill="#fff"/>
    </g>
    <g id="Grupo_48" data-name="Grupo 48" transform="translate(18.838 0.32)">
      <path id="Caminho_20" data-name="Caminho 20" d="M295.823-329.287a.644.644,0,0,1,.639.494l7.294,19.411a.392.392,0,0,1-.043.349.379.379,0,0,1-.334.145h-1.685a.584.584,0,0,1-.552-.436l-1.831-4.853h-8.921l-1.831,4.853q-.174.436-.523.436h-1.714a.379.379,0,0,1-.334-.145.392.392,0,0,1-.044-.349l7.294-19.411a.644.644,0,0,1,.639-.494Zm2.7,12.844-3.632-10.345h-.058l-3.661,10.345Z" transform="translate(-285.922 329.287)" fill="#fff"/>
    </g>
    <g id="Grupo_49" data-name="Grupo 49" transform="translate(38.591 0)">
      <path id="Caminho_21" data-name="Caminho 21" d="M407.032-313.331q.407-.145.61.32l.552,1.25q.029.32-.378.523a9.735,9.735,0,0,1-5.172,1.22,8.571,8.571,0,0,1-6.785-2.717q-2.4-2.717-2.4-7.773t2.368-7.788a8.353,8.353,0,0,1,6.669-2.732,9.994,9.994,0,0,1,5.114,1.163q.465.232.349.552l-.494,1.221a.4.4,0,0,1-.639.262,8.547,8.547,0,0,0-3.981-.9,6.234,6.234,0,0,0-5.1,2.092q-1.729,2.092-1.729,6.131,0,8.195,6.974,8.195A8.284,8.284,0,0,0,407.032-313.331Z" transform="translate(-393.461 331.028)" fill="#fff"/>
    </g>
    <g id="Grupo_50" data-name="Grupo 50" transform="translate(57.305 0.32)">
      <path id="Caminho_22" data-name="Caminho 22" d="M495.346-328.822a.411.411,0,0,1,.465-.465h1.54q.494,0,.494.465v19.44a.437.437,0,0,1-.494.494h-1.54q-.465,0-.465-.494Z" transform="translate(-495.346 329.287)" fill="#fff"/>
    </g>
    <g id="Grupo_51" data-name="Grupo 51" transform="translate(64.221 0)">
      <path id="Caminho_23" data-name="Caminho 23" d="M548.285-328.3q2.267,2.731,2.267,7.788t-2.267,7.773a8.032,8.032,0,0,1-6.538,2.717,7.965,7.965,0,0,1-6.48-2.717Q533-315.452,533-320.509t2.266-7.788a7.979,7.979,0,0,1,6.509-2.732A7.978,7.978,0,0,1,548.285-328.3Zm-1.845,13.9a10.2,10.2,0,0,0,1.555-6.117,10.268,10.268,0,0,0-1.555-6.131,5.408,5.408,0,0,0-4.664-2.121,5.408,5.408,0,0,0-4.664,2.121,10.269,10.269,0,0,0-1.555,6.131,10.2,10.2,0,0,0,1.555,6.117,5.422,5.422,0,0,0,4.664,2.107A5.422,5.422,0,0,0,546.44-314.392Z" transform="translate(-533 331.028)" fill="#fff"/>
    </g>
    <g id="Grupo_52" data-name="Grupo 52" transform="translate(85.987 0.32)">
      <path id="Caminho_24" data-name="Caminho 24" d="M666.955-309.382a.437.437,0,0,1-.494.494h-1.6a.785.785,0,0,1-.668-.378l-10.258-15.866v15.75q0,.494-.465.494H651.99a.437.437,0,0,1-.494-.494v-19.44q0-.465.494-.465h1.569a.782.782,0,0,1,.7.349l10.258,15.9v-15.779a.411.411,0,0,1,.465-.465h1.482q.494,0,.494.436Z" transform="translate(-651.496 329.287)" fill="#fff"/>
    </g>
    <g id="Grupo_53" data-name="Grupo 53" transform="translate(104.825 0.32)">
      <path id="Caminho_25" data-name="Caminho 25" d="M763.959-329.287a.644.644,0,0,1,.639.494l7.294,19.411a.392.392,0,0,1-.043.349.38.38,0,0,1-.334.145h-1.685a.584.584,0,0,1-.552-.436l-1.831-4.853h-8.921l-1.831,4.853q-.175.436-.523.436h-1.714a.379.379,0,0,1-.334-.145.393.393,0,0,1-.044-.349l7.294-19.411a.644.644,0,0,1,.639-.494Zm2.7,12.844-3.632-10.345h-.058l-3.662,10.345Z" transform="translate(-754.058 329.287)" fill="#fff"/>
    </g>
    <g id="Grupo_54" data-name="Grupo 54" transform="translate(126.06 0.32)">
      <path id="Caminho_26" data-name="Caminho 26" d="M872.163-311.212h8.8q.494,0,.494.436v1.395a.437.437,0,0,1-.494.494h-10.81a.437.437,0,0,1-.494-.494v-19.44q0-.465.494-.465h1.511q.494,0,.494.465Z" transform="translate(-869.664 329.287)" fill="#fff"/>
    </g>
  </g>
  <g id="Grupo_64" data-name="Grupo 64" transform="translate(160.985 8.041)">
    <g id="Grupo_56" data-name="Grupo 56" transform="translate(0 4.853)">
      <path id="Caminho_27" data-name="Caminho 27" d="M1016.943-317.954v8.572a.436.436,0,0,1-.494.494h-1.511a.437.437,0,0,1-.494-.494v-19.44q0-.465.494-.465h10.926q.465,0,.465.436v1.337q0,.494-.465.494h-8.921v6.858h8.718a.437.437,0,0,1,.494.494v1.25q0,.465-.494.465Z" transform="translate(-1014.444 329.287)" fill="#00c48c"/>
    </g>
    <g id="Grupo_57" data-name="Grupo 57" transform="translate(13.23)">
      <path id="Caminho_28" data-name="Caminho 28" d="M1096.373-350.855a.644.644,0,0,1,.639.494l7.294,19.411a.392.392,0,0,1-.043.349.38.38,0,0,1-.334.145h-1.685a.585.585,0,0,1-.552-.436l-1.831-4.853h-8.921l-1.831,4.853q-.174.436-.523.436h-1.714a.379.379,0,0,1-.334-.145.392.392,0,0,1-.043-.349l7.294-19.411a.644.644,0,0,1,.639-.494Zm2.7,12.844-3.632-10.345h-.058l-3.662,10.345Zm-2.644-17.319a.677.677,0,0,1,.639-.378h2.092a.268.268,0,0,1,.291.189.3.3,0,0,1-.117.334l-2.673,2.5a.91.91,0,0,1-.7.32h-.872a.279.279,0,0,1-.276-.145.284.284,0,0,1,.014-.291Z" transform="translate(-1086.471 355.708)" fill="#00c48c"/>
    </g>
    <g id="Grupo_58" data-name="Grupo 58" transform="translate(34.465 4.853)">
      <path id="Caminho_29" data-name="Caminho 29" d="M1202.572-308.888a.437.437,0,0,1-.494-.494v-19.44q0-.465.494-.465h7.236q3.836,0,5.666,1.308a4.535,4.535,0,0,1,1.831,3.952q0,3.662-2.964,4.388,3.691.814,3.691,4.969a5,5,0,0,1-1.962,4.417q-1.961,1.366-6.146,1.366Zm7.323-11.653a7.13,7.13,0,0,0,3.836-.755,2.874,2.874,0,0,0,1.1-2.557,2.652,2.652,0,0,0-1.163-2.441,7.793,7.793,0,0,0-3.923-.727h-5.2v6.48Zm-.145,9.357a9.312,9.312,0,0,0,4.533-.785,3.068,3.068,0,0,0,1.279-2.848,3.014,3.014,0,0,0-1.206-2.717,8.406,8.406,0,0,0-4.344-.8h-5.463v7.148Z" transform="translate(-1202.078 329.287)" fill="#00c48c"/>
    </g>
    <g id="Grupo_59" data-name="Grupo 59" transform="translate(54.69 4.853)">
      <path id="Caminho_30" data-name="Caminho 30" d="M1318.613-329.287q4.243,0,6.248,1.613a5.978,5.978,0,0,1,2.005,4.954q0,5.55-5.9,6.248l5.928,6.945a.453.453,0,0,1,.1.436q-.072.2-.392.2h-1.772a.937.937,0,0,1-.726-.378l-5.87-6.945h-3.545v6.829a.436.436,0,0,1-.494.494h-1.511a.437.437,0,0,1-.494-.494v-19.44q0-.465.494-.465Zm-.116,10.781q3.2,0,4.519-1a3.77,3.77,0,0,0,1.322-3.211,3.8,3.8,0,0,0-1.351-3.269,7.574,7.574,0,0,0-4.432-1h-3.865v8.485Z" transform="translate(-1312.191 329.287)" fill="#00c48c"/>
    </g>
    <g id="Grupo_60" data-name="Grupo 60" transform="translate(73.84 4.853)">
      <path id="Caminho_31" data-name="Caminho 31" d="M1416.45-328.822a.411.411,0,0,1,.465-.465h1.54q.493,0,.494.465v19.44a.437.437,0,0,1-.494.494h-1.54q-.465,0-.465-.494Z" transform="translate(-1416.45 329.287)" fill="#00c48c"/>
    </g>
    <g id="Grupo_61" data-name="Grupo 61" transform="translate(80.815 4.533)">
      <path id="Caminho_32" data-name="Caminho 32" d="M1467.991-313.331q.406-.145.61.32l.552,1.25q.03.32-.377.523a9.737,9.737,0,0,1-5.173,1.22,8.57,8.57,0,0,1-6.785-2.717q-2.4-2.717-2.4-7.773t2.368-7.788a8.352,8.352,0,0,1,6.669-2.732,9.992,9.992,0,0,1,5.114,1.163q.465.232.349.552l-.494,1.221a.4.4,0,0,1-.639.262,8.547,8.547,0,0,0-3.981-.9,6.234,6.234,0,0,0-5.1,2.092q-1.729,2.092-1.729,6.131,0,8.195,6.975,8.195A8.285,8.285,0,0,0,1467.991-313.331Z" transform="translate(-1454.42 331.028)" fill="#00c48c"/>
    </g>
    <g id="Grupo_62" data-name="Grupo 62" transform="translate(97.531 4.853)">
      <path id="Caminho_33" data-name="Caminho 33" d="M1555.332-329.287a.644.644,0,0,1,.639.494l7.294,19.411a.393.393,0,0,1-.043.349.38.38,0,0,1-.334.145H1561.2a.585.585,0,0,1-.552-.436l-1.831-4.853H1549.9l-1.831,4.853q-.174.436-.523.436h-1.715a.379.379,0,0,1-.334-.145.393.393,0,0,1-.043-.349l7.294-19.411a.644.644,0,0,1,.639-.494Zm2.7,12.844-3.632-10.345h-.058l-3.661,10.345Z" transform="translate(-1545.431 329.287)" fill="#00c48c"/>
    </g>
    <g id="Grupo_63" data-name="Grupo 63" transform="translate(117.503 4.533)">
      <path id="Caminho_34" data-name="Caminho 34" d="M1665.84-311.471a9.673,9.673,0,0,1-5.565,1.395,13.883,13.883,0,0,1-5.725-.93q-.465-.2-.378-.552l.465-1.308q.116-.494.581-.291a13.269,13.269,0,0,0,4.969.843,7.261,7.261,0,0,0,3.792-.843,2.671,2.671,0,0,0,1.381-2.412,3.4,3.4,0,0,0-.145-1.017,2.136,2.136,0,0,0-.581-.886q-.436-.422-.727-.668a5.1,5.1,0,0,0-1.09-.61l-1.09-.494q-.291-.131-1.308-.537-.843-.349-1.293-.538t-1.177-.537a6.444,6.444,0,0,1-1.1-.639q-.378-.291-.872-.756a3.559,3.559,0,0,1-.741-.944,5.684,5.684,0,0,1-.421-1.133,5.453,5.453,0,0,1-.174-1.409,4.714,4.714,0,0,1,1.729-3.909,8.373,8.373,0,0,1,5.274-1.38,13.034,13.034,0,0,1,5.027.843q.465.174.349.552l-.465,1.279q-.145.436-.61.262a11.223,11.223,0,0,0-4.126-.668,6.5,6.5,0,0,0-3.56.756,2.552,2.552,0,0,0-1.119,2.267,2.652,2.652,0,0,0,.116.785,4.258,4.258,0,0,0,.247.639,1.814,1.814,0,0,0,.451.538q.319.276.537.45a4.256,4.256,0,0,0,.712.421q.494.247.741.349l.886.363q.639.261.871.378l1.569.683q.436.189,1.38.683a6.105,6.105,0,0,1,1.352.886,13.23,13.23,0,0,1,.93,1.017,3.592,3.592,0,0,1,.727,1.366,6.311,6.311,0,0,1,.2,1.671A4.605,4.605,0,0,1,1665.84-311.471Z" transform="translate(-1654.159 331.028)" fill="#00c48c"/>
    </g>
  </g>
</svg>
