<svg xmlns="http://www.w3.org/2000/svg" width="238.311" height="238.295" viewBox="0 0 238.311 238.295">
  <path id="agile-transition" d="M115.9,83.924a35.234,35.234,0,1,1-35.234,35.234A35.234,35.234,0,0,1,115.9,83.924ZM56.275,191.556A93.968,93.968,0,0,1,92.051,28.314a4.678,4.678,0,1,0-2.383-9.048,103.3,103.3,0,0,0-39.362,179.5,4.682,4.682,0,1,0,5.97-7.215ZM128.729,16.614,139.3,8.355A4.673,4.673,0,0,0,133.551.989L113.313,16.795a4.674,4.674,0,0,0-.059,7.411l20.3,15.851a4.673,4.673,0,1,0,5.753-7.365l-8.048-6.285A93.952,93.952,0,0,1,116.13,213.085H4.671a4.688,4.688,0,0,0,0,9.375H116.131a103.309,103.309,0,0,0,12.6-205.847Zm91.3,205.846h-37.7a4.688,4.688,0,0,1,0-9.375h37.7l-9.579-7.481a4.673,4.673,0,1,1,5.753-7.365l20.228,15.8a4.675,4.675,0,0,1,.069,7.419l-20.3,15.851a4.673,4.673,0,1,1-5.753-7.365l9.579-7.481ZM127.739,59.232,123.1,47.173H108.709l-4.642,12.06a60.736,60.736,0,0,0-22.161,9.186L70.088,63.17,59.915,73.343,65.163,85.16a60.714,60.714,0,0,0-9.186,22.162l-12.059,4.642v14.388l12.057,4.641a60.721,60.721,0,0,0,9.188,22.166l-5.247,11.814,10.174,10.173L81.907,169.9a60.73,60.73,0,0,0,22.161,9.186l4.642,12.06H123.1l4.641-12.057A60.721,60.721,0,0,0,149.9,169.9l11.814,5.247,10.173-10.173-5.249-11.818a60.73,60.73,0,0,0,9.186-22.161l12.06-4.642V111.963l-12.056-4.641a60.73,60.73,0,0,0-9.188-22.166l5.247-11.814L161.718,63.17,149.9,68.418A60.752,60.752,0,0,0,127.739,59.232Z" transform="translate(0.016 0)" fill="#2ea853" fill-rule="evenodd"/>
</svg>
