<svg xmlns="http://www.w3.org/2000/svg" width="28.417" height="31.574" viewBox="0 0 28.417 31.574">
  <path id="Combined-Shape" d="M14.216,0A7.88,7.88,0,0,1,22.1,7.537h-.041a.793.793,0,0,1-.069.356h.247c1.921,0,3.933,1.332,4.74,4.546l.088.379L28.28,22.6c.874,6.237-2.539,8.861-7.194,8.972l-.312,0H7.686c-4.731,0-8.377-1.724-7.575-8.551L.166,22.6l1.228-9.78C2,9.357,4.031,7.992,5.99,7.9l.217-.005H6.33a1.024,1.024,0,0,1,0-.356A7.88,7.88,0,0,1,14.216,0ZM9.625,13.15a1.437,1.437,0,1,0,1.4,1.436h0l-.011-.18A1.41,1.41,0,0,0,9.625,13.15Zm9.139,0a1.437,1.437,0,1,0,1.4,1.436A1.416,1.416,0,0,0,18.764,13.15ZM14.154,2.056a5.491,5.491,0,0,0-5.5,5.481,1.025,1.025,0,0,1,0,.356H19.723a1.023,1.023,0,0,1-.069-.356A5.491,5.491,0,0,0,14.154,2.056Z" fill="#fff"/>
</svg>
