<svg xmlns="http://www.w3.org/2000/svg" data-name="Layer 1" viewBox="0 0 48 48" id="BillPayment"><path fill="#07c48d" d="M13 23a1 1 0 01-1-1V8A3 3 0 006 8V21h4a1 1 0 010 2H5a1 1 0 01-1-1V8A5 5 0 0114 8V22A1 1 0 0113 23zM37 45H19a1 1 0 01-.832-1.555l.08-.12a1 1 0 01.618-.422A4.013 4.013 0 0022 39V35a1 1 0 011-1H43a1 1 0 011 1v3A7.008 7.008 0 0137 45zM22.461 43H37a5.006 5.006 0 005-5V36H24v3A6.007 6.007 0 0122.461 43z" class="color232323 svgShape"></path><path fill="#07c48d" d="M37,45H18a6.006,6.006,0,0,1-6-6V8A3,3,0,0,0,9,5,1,1,0,0,1,9,3H30A10.011,10.011,0,0,1,40,13V35a1,1,0,0,1-2,0V13a8.009,8.009,0,0,0-8-8H13a4.973,4.973,0,0,1,1,3V39a4,4,0,0,0,4,4H37a1,1,0,0,1,0,2Z" class="color232323 svgShape"></path><path fill="#07c48d" d="M25,16a3,3,0,1,1,3-3,1,1,0,0,1-2,0,1,1,0,1,0-1,1,1,1,0,0,1,0,2Z" class="color7fbde7 svgShape"></path><path fill="#07c48d" d="M25 20a3 3 0 01-3-3 1 1 0 012 0 1 1 0 101-1 1 1 0 010-2 3 3 0 010 6zM25 12a1 1 0 01-1-1V9.667a1 1 0 012 0V11A1 1 0 0125 12z" class="color7fbde7 svgShape"></path><path fill="#07c48d" d="M25 21.333a1 1 0 01-1-1V19a1 1 0 012 0v1.333A1 1 0 0125 21.333zM34 26H30a1 1 0 010-2h4a1 1 0 010 2zM27 26H18a1 1 0 010-2h9a1 1 0 010 2zM21 31H18a1 1 0 010-2h3a1 1 0 010 2zM34 31H24a1 1 0 010-2H34a1 1 0 010 2z" class="color7fbde7 svgShape"></path></svg>
