<svg xmlns="http://www.w3.org/2000/svg" width="32.578" height="28.958" viewBox="0 0 32.578 28.958">
  <path id="FontAwsome_boxes_" data-name="FontAwsome (boxes)" d="M31.673,16.289H27.148v5.43l-1.81-1.2-1.81,1.2v-5.43H19a.908.908,0,0,0-.9.9V28.053a.908.908,0,0,0,.9.9H31.673a.908.908,0,0,0,.9-.9V17.194A.908.908,0,0,0,31.673,16.289ZM9.954,12.669H22.624a.908.908,0,0,0,.9-.9V.9a.908.908,0,0,0-.9-.9H18.1V5.43l-1.81-1.2-1.81,1.2V0H9.954a.908.908,0,0,0-.9.9V11.764A.908.908,0,0,0,9.954,12.669Zm3.62,3.62H9.049v5.43l-1.81-1.2-1.81,1.2v-5.43H.9a.908.908,0,0,0-.9.9V28.053a.908.908,0,0,0,.9.9H13.574a.908.908,0,0,0,.9-.9V17.194A.908.908,0,0,0,13.574,16.289Z" fill="#fff"/>
</svg>
