<svg id="Icon_phone-call-2" data-name="Icon/phone-call" xmlns="http://www.w3.org/2000/svg" xmlns:xlink="http://www.w3.org/1999/xlink" width="20" height="20" viewBox="0 0 20 20">
  <defs>
    <clipPath id="clip-path">
      <path id="Icon_phone-call" data-name="Icon/phone-call" d="M0,4.167a.836.836,0,0,1,.244-.59l2.5-2.5a.834.834,0,0,1,1.178,0L8.089,5.244a.832.832,0,0,1,0,1.178L6.179,8.333l5.488,5.488,1.911-1.911a.834.834,0,0,1,1.178,0l4.167,4.167a.832.832,0,0,1,0,1.178l-2.5,2.5a.83.83,0,0,1-.589.244A15.833,15.833,0,0,1,0,4.167ZM18.333,8.333a6.666,6.666,0,0,0-6.666-6.666.833.833,0,0,1,0-1.667A8.333,8.333,0,0,1,20,8.333a.833.833,0,1,1-1.667,0ZM15,8.333A3.334,3.334,0,0,0,11.667,5a.833.833,0,0,1,0-1.667,5,5,0,0,1,5,5,.833.833,0,0,1-1.667,0Z"/>
    </clipPath>
  </defs>
  <rect id="Box" width="20" height="20" fill="none"/>
  <g id="Grupo_1" data-name="Grupo 1">
    <path id="Icon_phone-call-3" data-name="Icon/phone-call" d="M0,4.167a.836.836,0,0,1,.244-.59l2.5-2.5a.834.834,0,0,1,1.178,0L8.089,5.244a.832.832,0,0,1,0,1.178L6.179,8.333l5.488,5.488,1.911-1.911a.834.834,0,0,1,1.178,0l4.167,4.167a.832.832,0,0,1,0,1.178l-2.5,2.5a.83.83,0,0,1-.589.244A15.833,15.833,0,0,1,0,4.167ZM18.333,8.333a6.666,6.666,0,0,0-6.666-6.666.833.833,0,0,1,0-1.667A8.333,8.333,0,0,1,20,8.333a.833.833,0,1,1-1.667,0ZM15,8.333A3.334,3.334,0,0,0,11.667,5a.833.833,0,0,1,0-1.667,5,5,0,0,1,5,5,.833.833,0,0,1-1.667,0Z"/>
  </g>
</svg>
