<svg xmlns="http://www.w3.org/2000/svg" width="138.355" height="138.355" viewBox="0 0 138.355 138.355">
  <path id="Caminho_1966" data-name="Caminho 1966" d="M89.094,43.506,71.177,61.423,53.26,43.506,43.506,53.26,61.423,71.177,43.506,89.094l9.754,9.754L71.177,80.931,89.094,98.848l9.754-9.754L80.931,71.177,98.848,53.26ZM71.177,2a69.177,69.177,0,1,0,69.177,69.177A69.114,69.114,0,0,0,71.177,2Zm0,124.519a55.342,55.342,0,1,1,55.342-55.342A55.415,55.415,0,0,1,71.177,126.519Z" transform="translate(-2 -2)" fill="#b4b4b4"/>
</svg>
