<svg xmlns="http://www.w3.org/2000/svg" width="27.868" height="36.442" viewBox="0 0 27.868 36.442">
  <g id="noun_bill_2763268" transform="translate(372 -57)">
    <g id="Grupo_207" data-name="Grupo 207" transform="translate(-372 57)">
      <path id="Caminho_1630" data-name="Caminho 1630" d="M2,3.072v34.3a1.075,1.075,0,0,0,1.072,1.072H28.8a1.075,1.075,0,0,0,1.072-1.072V7.359a1.112,1.112,0,0,0-.322-.761L25.259,2.311a1.024,1.024,0,0,0-.354-.236,1.186,1.186,0,0,0-.4-.075H3.072A1.075,1.075,0,0,0,2,3.072ZM4.144,4.144H24.069L27.724,7.8V36.3H4.144Z" transform="translate(-2 -2)" fill="#1ec48c"/>
      <path id="Caminho_1631" data-name="Caminho 1631" d="M15.215,18.646a1.075,1.075,0,0,1-1.072-1.072,1.072,1.072,0,0,0-2.144,0A3.227,3.227,0,0,0,14.144,20.6v.193a1.072,1.072,0,1,0,2.144,0V20.6a3.21,3.21,0,0,0-1.072-6.238,1.072,1.072,0,1,1,1.072-1.072,1.072,1.072,0,0,0,2.144,0,3.227,3.227,0,0,0-2.144-3.023v-.193a1.072,1.072,0,1,0-2.144,0v.193A3.21,3.21,0,0,0,15.215,16.5a1.072,1.072,0,0,1,0,2.144Z" transform="translate(-1.282 -1.497)" fill="#1ec48c"/>
      <path id="Caminho_1632" data-name="Caminho 1632" d="M24.221,25H7.072a1.072,1.072,0,0,0,0,2.144H24.221a1.072,1.072,0,0,0,0-2.144Z" transform="translate(-1.713 -0.348)" fill="#1ec48c"/>
      <path id="Caminho_1633" data-name="Caminho 1633" d="M24.221,29H7.072a1.072,1.072,0,1,0,0,2.144H24.221a1.072,1.072,0,1,0,0-2.144Z" transform="translate(-1.713 -0.061)" fill="#1ec48c"/>
    </g>
  </g>
</svg>
