<svg xmlns="http://www.w3.org/2000/svg" width="101.5" height="101.5" viewBox="0 0 101.5 101.5">
  <path id="Caminho_1948" data-name="Caminho 1948" d="M69.005,63.028c0,11.616-11.052,13.872-13.364,14.266V82.82H47.859V77.069c-3.271-.789-10.6-3.44-13.364-13.139l7.331-2.989c.282.959,2.594,9.248,10.658,9.248,4.116,0,8.8-2.086,8.8-7.1,0-4.286-3.1-6.485-10.094-8.966-4.849-1.748-14.83-4.567-14.83-14.661,0-.451.056-10.657,11.616-13.139V20.736h7.782v5.526A14.99,14.99,0,0,1,67.539,36.13l-6.992,2.989a8.575,8.575,0,0,0-8.4-5.921c-3.1,0-8.007,1.635-8.007,6.146,0,4.173,3.778,5.808,11.672,8.458C66.3,51.412,69.005,56.825,69.005,63.028ZM29.194,74.306V65.847H1V94.042H9.458V79.832A50.762,50.762,0,0,0,102.5,51.75H94.042a42.312,42.312,0,0,1-78.1,22.556ZM94.042,23.668A50.762,50.762,0,0,0,1,51.75H9.458a42.312,42.312,0,0,1,78.1-22.556H74.306v8.458H102.5V9.458H94.042Z" transform="translate(-1 -1)"/>
</svg>
