<svg xmlns="http://www.w3.org/2000/svg" width="97.284" height="72.963" viewBox="0 0 97.284 72.963">
  <path id="FontAwsome_chart-bar_" data-name="FontAwsome (chart-bar)" d="M63.235,112.642h7.3a2.615,2.615,0,0,0,2.432-2.432V84.673a2.615,2.615,0,0,0-2.432-2.432h-7.3A2.615,2.615,0,0,0,60.8,84.673V110.21A2.615,2.615,0,0,0,63.235,112.642Zm18.241,0h7.3A2.615,2.615,0,0,0,91.2,110.21V66.432A2.615,2.615,0,0,0,88.772,64h-7.3a2.615,2.615,0,0,0-2.432,2.432V110.21A2.615,2.615,0,0,0,81.476,112.642Zm-54.722,0h7.3a2.615,2.615,0,0,0,2.432-2.432V96.833A2.615,2.615,0,0,0,34.049,94.4h-7.3a2.615,2.615,0,0,0-2.432,2.432V110.21A2.615,2.615,0,0,0,26.753,112.642Zm18.241,0h7.3a2.615,2.615,0,0,0,2.432-2.432v-37.7A2.615,2.615,0,0,0,52.29,70.08h-7.3a2.615,2.615,0,0,0-2.432,2.432v37.7A2.615,2.615,0,0,0,44.994,112.642ZM94.244,124.8H12.161V67.04A3.039,3.039,0,0,0,9.12,64H3.04A3.039,3.039,0,0,0,0,67.04v63.843a6.081,6.081,0,0,0,6.08,6.08H94.244a3.039,3.039,0,0,0,3.04-3.04v-6.08A3.039,3.039,0,0,0,94.244,124.8Z" transform="translate(0 -64)"/>
</svg>
