<svg id="Grupo_8" data-name="Grupo 8" xmlns="http://www.w3.org/2000/svg" xmlns:xlink="http://www.w3.org/1999/xlink" width="16.647" height="16.647" viewBox="0 0 16.647 16.647">
  <defs>
    <clipPath id="clip-path">
      <path id="Icon_simple-remove" data-name="Icon/simple-remove" d="M14.871,16.342,8.324,9.795,1.776,16.342A1.04,1.04,0,1,1,.3,14.871L6.852,8.324.3,1.776A1.041,1.041,0,0,1,1.776.3L8.324,6.852,14.871.3a1.04,1.04,0,1,1,1.471,1.472L9.795,8.324l6.547,6.548a1.04,1.04,0,1,1-1.471,1.471Z" transform="translate(0 0)"/>
    </clipPath>
  </defs>
  <path id="Icon_simple-remove-2" data-name="Icon/simple-remove" d="M14.871,16.342,8.324,9.795,1.776,16.342A1.04,1.04,0,1,1,.3,14.871L6.852,8.324.3,1.776A1.041,1.041,0,0,1,1.776.3L8.324,6.852,14.871.3a1.04,1.04,0,1,1,1.471,1.472L9.795,8.324l6.547,6.548a1.04,1.04,0,1,1-1.471,1.471Z" transform="translate(0 0)"/>
</svg>
