<svg xmlns="http://www.w3.org/2000/svg" width="25.572" height="25.573" viewBox="0 0 25.572 25.573">
  <g id="noun_config_709259" transform="translate(-3.199 -3.198)">
    <g id="Grupo_253" data-name="Grupo 253" transform="translate(3.199 3.198)">
      <path id="Caminho_1675" data-name="Caminho 1675" d="M13.455,18.125a4.67,4.67,0,1,0-4.669-4.671A4.675,4.675,0,0,0,13.455,18.125Zm0-8.117a3.447,3.447,0,1,1-3.447,3.446A3.451,3.451,0,0,1,13.455,10.008Z" transform="translate(-0.669 -0.668)" fill="#7c7c7c"/>
      <path id="Caminho_1676" data-name="Caminho 1676" d="M3.2,14.094v3.783a1.232,1.232,0,0,0,1.23,1.23H5.587a10.873,10.873,0,0,0,.838,2.022l-.819.819a1.229,1.229,0,0,0,0,1.74l2.675,2.675a1.221,1.221,0,0,0,.87.36h0a1.223,1.223,0,0,0,.87-.36l.819-.819a10.792,10.792,0,0,0,2.022.838V27.54a1.232,1.232,0,0,0,1.23,1.23h3.783a1.232,1.232,0,0,0,1.23-1.23V26.383a10.752,10.752,0,0,0,2.022-.838l.819.819a1.231,1.231,0,0,0,1.74,0l2.675-2.675a1.229,1.229,0,0,0,0-1.74l-.819-.819a10.873,10.873,0,0,0,.838-2.022H27.54a1.232,1.232,0,0,0,1.23-1.23V14.094a1.232,1.232,0,0,0-1.23-1.23H26.382a10.873,10.873,0,0,0-.838-2.022l.819-.819a1.229,1.229,0,0,0,0-1.74L23.69,5.605a1.258,1.258,0,0,0-1.739,0l-.822.821a10.873,10.873,0,0,0-2.022-.838V4.428a1.232,1.232,0,0,0-1.23-1.23H14.093a1.232,1.232,0,0,0-1.23,1.23V5.588a10.873,10.873,0,0,0-2.022.838l-.819-.819a1.26,1.26,0,0,0-1.74,0L5.608,8.281a1.231,1.231,0,0,0,0,1.742l.819.818a10.679,10.679,0,0,0-.838,2.022H4.429A1.232,1.232,0,0,0,3.2,14.094Zm1.23-.007H6.046a.579.579,0,0,0,.18-.031l.029-.009a.64.64,0,0,0,.153-.081c.009-.006.015-.013.023-.019a.594.594,0,0,0,.123-.132l0,0a.6.6,0,0,0,.076-.171s0-.009.006-.013a9.591,9.591,0,0,1,1.068-2.577.744.744,0,0,0,.036-.077.151.151,0,0,1,.006-.015.615.615,0,0,0,.042-.215v-.016a.578.578,0,0,0-.041-.211l-.007-.02a.58.58,0,0,0-.123-.185s0-.007-.006-.01L6.471,9.147,9.157,6.471,10.3,7.614s0,0,0,0a.589.589,0,0,0,.18.119l.042.017a.634.634,0,0,0,.208.039.606.606,0,0,0,.206-.041.418.418,0,0,0,.045-.019c.02-.01.042-.015.061-.026A9.591,9.591,0,0,1,13.623,6.64a.313.313,0,0,0,.039-.015.478.478,0,0,0,.064-.023.33.33,0,0,0,.049-.028l.052-.032a.563.563,0,0,0,.045-.038.538.538,0,0,0,.042-.039.546.546,0,0,0,.036-.045.577.577,0,0,0,.035-.048.567.567,0,0,0,.028-.051c.009-.017.019-.035.026-.054a.441.441,0,0,0,.017-.058c0-.017.01-.036.015-.055a.568.568,0,0,0,.007-.07.36.36,0,0,0,0-.039l.007-1.624,3.792.007V6.045a.413.413,0,0,0,0,.042.5.5,0,0,0,.007.067.405.405,0,0,0,.015.057c.006.019.01.038.017.057s.017.038.026.055a.531.531,0,0,0,.026.049c.012.017.023.033.036.049a.525.525,0,0,0,.036.044.578.578,0,0,0,.044.041.352.352,0,0,0,.045.036c.017.012.035.022.054.032a.53.53,0,0,0,.049.026.433.433,0,0,0,.065.023l.038.015a9.585,9.585,0,0,1,2.579,1.069.571.571,0,0,0,.062.026c.015.006.028.013.041.017a.617.617,0,0,0,.209.042.626.626,0,0,0,.212-.042l.032-.013a.6.6,0,0,0,.189-.125h0L22.824,6.47,25.5,9.157,24.356,10.3s0,.009-.009.013a.642.642,0,0,0-.121.18l-.009.025a.577.577,0,0,0-.039.2.11.11,0,0,0,0,.022.615.615,0,0,0,.041.209l.009.017a.491.491,0,0,0,.035.074,9.6,9.6,0,0,1,1.068,2.576s0,.009.006.013a.607.607,0,0,0,.077.174,0,0,0,0,0,0,0,.621.621,0,0,0,.126.135l.017.015a.571.571,0,0,0,.158.084l.022.007a.609.609,0,0,0,.186.032l1.624.009-.007,3.79H25.926c-.016,0-.031,0-.046,0l-.061.006-.061.016-.052.016c-.019.007-.038.017-.057.026s-.033.016-.049.026a.553.553,0,0,0-.046.035.586.586,0,0,0-.046.038c-.013.013-.026.028-.038.041s-.028.031-.039.046-.022.035-.032.052a.529.529,0,0,0-.026.049.622.622,0,0,0-.025.067.268.268,0,0,0-.013.036,9.572,9.572,0,0,1-1.068,2.577.506.506,0,0,0-.035.076.078.078,0,0,0-.007.016.567.567,0,0,0-.041.212c0,.007,0,.013,0,.019a.636.636,0,0,0,.041.208c0,.007,0,.015.007.022a.656.656,0,0,0,.121.183s0,.009.007.012L25.5,22.82,22.813,25.5l-1.143-1.143-.009-.006a.6.6,0,0,0-.189-.125.061.061,0,0,1-.015-.006.636.636,0,0,0-.215-.042h-.013a.63.63,0,0,0-.216.042L21,24.227a.4.4,0,0,0-.076.036,9.572,9.572,0,0,1-2.577,1.069l-.022.007a.857.857,0,0,0-.086.031l-.032.017a.555.555,0,0,0-.07.042l-.032.026c-.019.016-.038.033-.055.051s-.017.022-.028.033a.568.568,0,0,0-.044.06c-.007.012-.013.025-.02.038s-.022.044-.032.067a.435.435,0,0,0-.015.046c-.006.022-.013.044-.017.065s0,.039-.006.058,0,.031,0,.046l-.007,1.624-3.792-.009V25.919c0-.015,0-.029,0-.044s0-.042-.006-.064-.01-.042-.016-.062a.342.342,0,0,0-.016-.051c-.009-.022-.019-.042-.029-.062l-.022-.041a.573.573,0,0,0-.042-.057c-.01-.012-.019-.025-.029-.035a.586.586,0,0,0-.054-.049l-.035-.029a.631.631,0,0,0-.067-.041c-.012-.006-.022-.013-.035-.019a.527.527,0,0,0-.084-.031l-.023-.009a9.611,9.611,0,0,1-2.577-1.069.467.467,0,0,0-.073-.033l-.019-.009a.6.6,0,0,0-.206-.041h-.025a.639.639,0,0,0-.2.039.155.155,0,0,0-.028.01.625.625,0,0,0-.179.118s-.01.006-.015.01L9.145,25.494l-2.675-2.68L7.614,21.67s0-.007.007-.01a.623.623,0,0,0,.123-.185c0-.006,0-.013.007-.019a.623.623,0,0,0,.039-.212V21.23a.615.615,0,0,0-.042-.215s0-.009-.006-.013a.744.744,0,0,0-.036-.077,9.6,9.6,0,0,1-1.069-2.577c0-.012-.009-.02-.012-.032a.751.751,0,0,0-.026-.074c-.007-.015-.015-.028-.023-.042a.491.491,0,0,0-.035-.06.433.433,0,0,0-.033-.039.474.474,0,0,0-.045-.048.418.418,0,0,0-.039-.032.542.542,0,0,0-.055-.041.392.392,0,0,0-.042-.023c-.02-.01-.041-.022-.062-.031l-.048-.015c-.022-.006-.044-.013-.065-.017s-.039,0-.06-.006-.029,0-.045,0l-1.626-.009Z" transform="translate(-3.199 -3.198)" fill="#7c7c7c"/>
    </g>
  </g>
</svg>
