<svg id="contact_phone_black_36dp" xmlns="http://www.w3.org/2000/svg" width="29.987" height="29.987" viewBox="0 0 29.987 29.987">
  <path id="Caminho_1969" data-name="Caminho 1969" d="M0,0H29.987V29.987H0Z" fill="none"/>
  <path id="Caminho_1970" data-name="Caminho 1970" d="M27.488,3H2.5A2.506,2.506,0,0,0,0,5.5V22.992a2.506,2.506,0,0,0,2.5,2.5H27.488a2.5,2.5,0,0,0,2.486-2.5L29.987,5.5A2.506,2.506,0,0,0,27.488,3Zm0,19.992H2.5V5.5H27.488ZM23.752,21.73l2.486-2.486-1.887-2.5H22.3a7.358,7.358,0,0,1,0-5h2.049l1.887-2.5L23.752,6.761a9.338,9.338,0,0,0-3.411,4.985,9.1,9.1,0,0,0,0,5A9.385,9.385,0,0,0,23.752,21.73ZM11.245,14.245A3.748,3.748,0,1,0,7.5,10.5,3.759,3.759,0,0,0,11.245,14.245Zm0-5A1.249,1.249,0,1,1,10,10.5,1.253,1.253,0,0,1,11.245,9.247Zm7.5,10.733c0-3.124-4.96-4.473-7.5-4.473s-7.5,1.349-7.5,4.473v1.762H18.742ZM6.847,19.243a8.887,8.887,0,0,1,4.4-1.249,8.8,8.8,0,0,1,4.4,1.249Z" transform="translate(0 0.748)" fill="#444"/>
</svg>
