<svg xmlns="http://www.w3.org/2000/svg" width="36" height="24" viewBox="0 0 36 24">
  <path id="FontAwsome_eye_" data-name="FontAwsome (eye)" d="M18,69a6.934,6.934,0,0,0-1.952.313A3.463,3.463,0,0,1,16.5,71,3.5,3.5,0,0,1,13,74.5a3.462,3.462,0,0,1-1.687-.452A6.982,6.982,0,1,0,18,69Zm17.783,6.088A20.046,20.046,0,0,0,18,64,20.049,20.049,0,0,0,.218,75.088a2.022,2.022,0,0,0,0,1.824A20.046,20.046,0,0,0,18,88,20.049,20.049,0,0,0,35.783,76.912a2.022,2.022,0,0,0,0-1.824ZM18,85A17,17,0,0,1,3.13,76,17,17,0,0,1,18,67a17,17,0,0,1,14.871,9A17,17,0,0,1,18,85Z" transform="translate(-0.001 -64)"/>
</svg>
