<svg xmlns="http://www.w3.org/2000/svg" viewBox="0 0 16 16" id="Factory"><path d="M2 0v6.623l-1 .582V16h15V3.027l-3.977 2.97v-3l-4.021 3V3.122L5 4.873V0H2zm1 1h1v4.457l-1 .582V1zm4.002 3.865V7.99l4.021-3v3L15 5.021V15H2V7.781l5.002-2.916zM3 10.995v3h3v-3H3zm4 0v3h3v-3H7zm4 0v3h3v-3h-3zm-7 1h1v1H4v-1zm4 0h1v1H8v-1zm4 0h1v1h-1v-1z" color="#000" font-family="sans-serif" font-weight="400" overflow="visible" style="line-height:normal;text-indent:0;text-align:start;text-decoration-line:none;text-decoration-style:solid;text-decoration-color:#000;text-transform:none;block-progression:tb;white-space:normal;isolation:auto;mix-blend-mode:normal;solid-color:#000;solid-opacity:1" fill="#07c48d" class="color000000 svgShape"></path></svg>