<svg xmlns="http://www.w3.org/2000/svg" width="32.74" height="32.74" viewBox="0 0 32.74 32.74">
  <path id="FontAwsome_file-import_" data-name="FontAwsome (file-import)" d="M1.023,18.416A1.026,1.026,0,0,0,0,19.439v2.046a1.026,1.026,0,0,0,1.023,1.023H8.185V18.416Zm31.269-11.7L26.032.448A1.534,1.534,0,0,0,24.945,0h-.39V8.185H32.74v-.39A1.53,1.53,0,0,0,32.292,6.714ZM22.509,8.7V0H9.72A1.531,1.531,0,0,0,8.185,1.535V18.416H16.37V14.247a1.026,1.026,0,0,1,1.752-.723L24.235,19.7a1.088,1.088,0,0,1,0,1.535l-6.12,6.164a1.026,1.026,0,0,1-1.752-.723V22.509H8.185v8.7A1.531,1.531,0,0,0,9.72,32.74H31.205a1.531,1.531,0,0,0,1.535-1.535V10.231h-8.7A1.539,1.539,0,0,1,22.509,8.7Z"/>
</svg>
