<svg xmlns="http://www.w3.org/2000/svg" width="34.616" height="34.616" viewBox="0 0 34.616 34.616">
  <g id="noun_filter_2176283" transform="translate(0.002 0.001)">
    <path id="Caminho_1746" 
    data-name="Caminho 1746" 
    d="M1.237,0A1.237,1.237,0,0,0,.171,1.866L13.6,19.779v13.6a1.236,1.236,0,0,0,1.789,1.105l4.944-2.473a1.236,1.236,0,0,0,.683-1.105V19.778L34.44,1.865A1.237,1.237,0,0,0,33.375,0ZM3.4,2.473H31.209l-12.5,16.34a1.225,1.225,0,0,0-.171.628v10.7l-2.473,1.236V19.441a1.243,1.243,0,0,0-.171-.628Z" transform="translate(0)" 
    fill="#a7a7a7"/>
  </g>
</svg>
