<svg xmlns="http://www.w3.org/2000/svg" width="27.86" height="25.492" viewBox="0 0 27.86 25.492">
  <path id="Caminho_1672" data-name="Caminho 1672" d="M14.926.243a1.1,1.1,0,0,0-1.376,0C9.261,4.613,4.891,8.9.6,13.272c-.89.89.4,2.266,1.295,1.376l.728-.728V24.6a.972.972,0,0,0,.971.89h8.255a.918.918,0,0,0,.971-.89v-6.15h2.832V24.6a.918.918,0,0,0,.971.89H24.88a.9.9,0,0,0,.89-.89V13.919l.728.728c.89.809,2.266-.486,1.376-1.376C23.585,8.9,19.215,4.613,14.926.243Zm8.983,23.388H17.516V17.48a.918.918,0,0,0-.89-.971H11.851a.984.984,0,0,0-.971.971v6.15H4.567V11.977l9.63-9.63,9.711,9.63Z" transform="translate(-0.303)" fill="#348ec6" fill-rule="evenodd"/>
</svg>
