<svg xmlns="http://www.w3.org/2000/svg" width="30.372" height="31.971" viewBox="0 0 30.372 31.971">
  <path id="Caminho_1943" data-name="Caminho 1943" d="M10.606,30.01V25.122a2.268,2.268,0,0,1,2.276-2.259h4.594a2.284,2.284,0,0,1,1.609.662,2.251,2.251,0,0,1,.667,1.6V30.01a1.94,1.94,0,0,0,.569,1.386,1.968,1.968,0,0,0,1.392.575h3.135a5.532,5.532,0,0,0,3.906-1.6A5.45,5.45,0,0,0,30.372,26.5V12.575a3.952,3.952,0,0,0-1.431-3.041L18.278,1.08a4.951,4.951,0,0,0-6.312.114L1.546,9.535A3.955,3.955,0,0,0,0,12.575V26.486a5.5,5.5,0,0,0,5.525,5.485H8.588a1.968,1.968,0,0,0,1.975-1.947Z" transform="translate(0 0)" fill="#fff"/>
</svg>
