<svg xmlns="http://www.w3.org/2000/svg" width="224.974" height="198.805" viewBox="0 0 224.974 198.805">
  <path id="internet-cloud" d="M158.071,54.815c-1.373.677-2.746,1.41-4.119,2.215a94.518,94.518,0,0,0-12.321,8.751L132.77,55.639a72.148,72.148,0,0,1,9.9-7.707,68.91,68.91,0,0,1,8.714-4.851q1.831-.915,3.661-1.7a53.86,53.86,0,0,0-23.8-22.335A57.851,57.851,0,0,0,100.7,13.715,55.306,55.306,0,0,0,72.1,24.883,53.585,53.585,0,0,0,52.512,58.092l-.879,4.6-4.577.806a63.032,63.032,0,0,0-12.01,3.24,40.166,40.166,0,0,0-9.154,4.87A30.757,30.757,0,0,0,20.4,76.711a31.122,31.122,0,0,0-6.957,20.321,36.852,36.852,0,0,0,6.938,21.127,34.6,34.6,0,0,0,5.8,6.224,29.383,29.383,0,0,0,5.62,3.661,61.093,61.093,0,0,0-.842,10.069,39.407,39.407,0,0,0,.146,4.174c-.842-.293-1.684-.6-2.49-.934a42.418,42.418,0,0,1-11.076-6.646,47.874,47.874,0,0,1-8.055-8.641A50.327,50.327,0,0,1,.006,97.032a43.388,43.388,0,0,1,18.051-36.34,53.091,53.091,0,0,1,12.138-6.5,73.027,73.027,0,0,1,10.087-3.076A66.107,66.107,0,0,1,63.935,14.246,68.634,68.634,0,0,1,99.488.333a71.4,71.4,0,0,1,37.6,6.591,67.517,67.517,0,0,1,31.342,30.884,54.556,54.556,0,0,1,8.769-.659,44.944,44.944,0,0,1,33.521,14.646,51.9,51.9,0,0,1,5.492,7.14,60.286,60.286,0,0,1,8.733,32.807c-.128,11.534-3.259,23.049-9.611,31.507a50.016,50.016,0,0,1-15.781,13.492,59.085,59.085,0,0,1-5.492,2.746v-1.373a59.535,59.535,0,0,0-1.428-12.943l.311-.165a37.2,37.2,0,0,0,11.717-9.9c4.577-6.1,6.829-14.646,6.92-23.561a46.775,46.775,0,0,0-6.536-25.374,39.306,39.306,0,0,0-4.119-5.309,31.818,31.818,0,0,0-23.8-10.27,46.482,46.482,0,0,0-19.058,4.229ZM103.552,84.857a51.717,51.717,0,0,0-12.01,3.5,55.875,55.875,0,0,0-9.318,5.016,51.131,51.131,0,0,0-7.945,6.536h0a53.95,53.95,0,0,0-4.3,4.851H85.648a122.659,122.659,0,0,1,17.923-19.9Zm55.727,79.911h.128a59.754,59.754,0,0,0,2.783-5.639v-.165a51.259,51.259,0,0,0,3.076-9.977,53.581,53.581,0,0,0,.952-7.506H151.206a53.9,53.9,0,0,1-6.792,23.287Zm-4.339,6.719h-14.7A109.183,109.183,0,0,1,121.933,191.3l1.41-.275A51.04,51.04,0,0,0,133.5,187.89a57.249,57.249,0,0,0,9.154-5.016,51.133,51.133,0,0,0,7.945-6.536h0a50.856,50.856,0,0,0,4.284-4.833Zm-23.067,0H115.836v16.2a113.506,113.506,0,0,0,16.092-16.2Zm-22.792,0H93.044a113.506,113.506,0,0,0,16.092,16.2v-16.2Zm-24.4,0H69.958a53.733,53.733,0,0,0,4.3,4.833h0a51.131,51.131,0,0,0,7.945,6.536,57.249,57.249,0,0,0,9.337,5.034h.165a51.773,51.773,0,0,0,10,3.057l1.41.275a109.184,109.184,0,0,1-18.307-19.808ZM65.51,164.768H80.558a53.64,53.64,0,0,1-6.92-23.287H58.59a52.212,52.212,0,0,0,4.083,17.648,59.87,59.87,0,0,0,2.838,5.639Zm22.793,0h20.834V141.481h-28.8A48.99,48.99,0,0,0,88.3,164.768Zm27.461,0H136.67a49.192,49.192,0,0,0,7.964-23.287h-28.8v23.287ZM58.59,134.763H73.73a57.6,57.6,0,0,1,7.616-23.287H65.51a57.65,57.65,0,0,0-2.783,5.694v.146a51.826,51.826,0,0,0-3.076,10,52.887,52.887,0,0,0-.952,7.506Zm21.859,0h28.687V111.476H89.181a53.384,53.384,0,0,0-8.623,23.287Zm35.351,0h28.687a53.384,53.384,0,0,0-8.7-23.287H115.836v23.287Zm35.37,0h15.14a52.891,52.891,0,0,0-.952-7.506,51.7,51.7,0,0,0-3.094-10.087,62.246,62.246,0,0,0-2.8-5.639H143.572a57.631,57.631,0,0,1,7.634,23.287ZM93.941,104.757h15.195V88.83a124.048,124.048,0,0,0-15.2,15.927Zm21.969,0h15.2A124.052,124.052,0,0,0,115.91,88.83Zm23.506,0h15.653a51.058,51.058,0,0,0-4.284-4.851h0A51.131,51.131,0,0,0,142.8,93.37a55.873,55.873,0,0,0-9.154-5.016h-.165a51.828,51.828,0,0,0-10-3.076l-1.922-.348a122.658,122.658,0,0,1,17.923,19.9ZM88.833,82.2a59.59,59.59,0,0,1,23.653-4.742,61.97,61.97,0,0,1,12.174,1.172,57.575,57.575,0,0,1,11.3,3.5h.183a62.993,62.993,0,0,1,10.325,5.748,57.8,57.8,0,0,1,8.952,7.323,56.752,56.752,0,0,1,7.323,8.952,62.373,62.373,0,0,1,5.694,10.307,58.583,58.583,0,0,1,3.661,11.479,62.867,62.867,0,0,1,0,24.349,57.193,57.193,0,0,1-3.661,11.3v.2a62.373,62.373,0,0,1-5.639,10.307,59.443,59.443,0,0,1-7.323,8.952,58.692,58.692,0,0,1-8.971,7.323,63.068,63.068,0,0,1-10.362,5.694,57.374,57.374,0,0,1-11.479,3.552,62.867,62.867,0,0,1-24.349,0,57.522,57.522,0,0,1-11.3-3.478h-.183a64.075,64.075,0,0,1-10.344-5.62,59.627,59.627,0,0,1-16.238-16.422,63.837,63.837,0,0,1-5.62-10.325,60.066,60.066,0,0,1-4.815-23.653A62.116,62.116,0,0,1,53.1,125.939a58.785,58.785,0,0,1,3.478-11.3v-.183a63.837,63.837,0,0,1,5.675-10.325A57.76,57.76,0,0,1,69.574,95.2a59.5,59.5,0,0,1,8.934-7.323,63.93,63.93,0,0,1,10.344-5.6Z" transform="translate(0.008 0.004)" fill="#2ea853"/>
</svg>
