<svg xmlns="http://www.w3.org/2000/svg" width="100.5" height="111.674" viewBox="0 0 100.5 111.674">
  <path id="União_2" data-name="União 2" d="M16205.742,1586.676a16.727,16.727,0,0,1-16.734-16.761v-16.739h16.734V1475l8.383,8.357,8.383-8.357,8.375,8.357,8.359-8.357,8.383,8.357,8.383-8.357,8.383,8.357,8.352-8.357,8.383,8.357,8.383-8.357v94.913a16.739,16.739,0,0,1-16.766,16.761Zm11.18-33.5h50.258v16.739a5.578,5.578,0,1,0,11.156,0V1491.74h-61.414Zm-16.766,16.739a5.613,5.613,0,0,0,5.586,5.586h50.266v-11.174h-55.852Zm61.438-39.088v-11.174h11.148v11.174Zm-39.086,0v-11.174h33.5v11.174Zm39.086-16.738v-11.174h11.148v11.174Zm-39.086,0v-11.174h33.5v11.174Z" transform="translate(-16189.008 -1475.002)"/>
</svg>
