<svg xmlns="http://www.w3.org/2000/svg" xmlns:xlink="http://www.w3.org/1999/xlink" width="20" height="20" viewBox="0 0 20 20">
  <defs>
    <clipPath id="clip-path">
      <path id="Icon_position-pin" data-name="Icon/position-pin" d="M0,16.611c0-1.515,1.877-2.439,4.883-2.974a.909.909,0,0,1,.318,1.79,10.923,10.923,0,0,0-2.756.8,3.7,3.7,0,0,0-.626.384c0,.554,3.728,1.571,8.182,1.571s8.182-1.016,8.182-1.571a3.706,3.706,0,0,0-.625-.384,10.943,10.943,0,0,0-2.757-.8.909.909,0,1,1,.319-1.79c3,.535,4.882,1.459,4.882,2.974C20,18.8,15.587,20,10,20S0,18.8,0,16.611Zm9.355.124c-.049-.05-.139-.142-.262-.272-.2-.213-.429-.457-.672-.727-.694-.77-1.388-1.6-2.037-2.453a23.762,23.762,0,0,1-1.862-2.8A8.12,8.12,0,0,1,3.306,6.694,6.629,6.629,0,0,1,10,0a6.629,6.629,0,0,1,6.694,6.694,8.12,8.12,0,0,1-1.216,3.785,23.651,23.651,0,0,1-1.862,2.8c-.649.855-1.343,1.683-2.037,2.453-.243.27-.469.514-.672.727-.123.13-.212.221-.262.272a.909.909,0,0,1-1.291,0Z" transform="translate(0)"/>
    </clipPath>
  </defs>
  <g id="Icon_position-pin-2" data-name="Icon/position-pin" transform="translate(0)">
    <rect id="Box" width="20" height="20" fill="none"/>
    <g id="Grupo_3" data-name="Grupo 3">
      <path id="Icon_position-pin-3" data-name="Icon/position-pin" d="M0,16.611c0-1.515,1.877-2.439,4.883-2.974a.909.909,0,0,1,.318,1.79,10.923,10.923,0,0,0-2.756.8,3.7,3.7,0,0,0-.626.384c0,.554,3.728,1.571,8.182,1.571s8.182-1.016,8.182-1.571a3.706,3.706,0,0,0-.625-.384,10.943,10.943,0,0,0-2.757-.8.909.909,0,1,1,.319-1.79c3,.535,4.882,1.459,4.882,2.974C20,18.8,15.587,20,10,20S0,18.8,0,16.611Zm9.355.124c-.049-.05-.139-.142-.262-.272-.2-.213-.429-.457-.672-.727-.694-.77-1.388-1.6-2.037-2.453a23.762,23.762,0,0,1-1.862-2.8A8.12,8.12,0,0,1,3.306,6.694,6.629,6.629,0,0,1,10,0a6.629,6.629,0,0,1,6.694,6.694,8.12,8.12,0,0,1-1.216,3.785,23.651,23.651,0,0,1-1.862,2.8c-.649.855-1.343,1.683-2.037,2.453-.243.27-.469.514-.672.727-.123.13-.212.221-.262.272a.909.909,0,0,1-1.291,0Z" transform="translate(0)"/>
    </g>
  </g>
</svg>
