<svg id="SAIR" xmlns="http://www.w3.org/2000/svg" width="33.005" height="31.766" viewBox="0 0 33.005 31.766">
  <g id="Logout">
    <path id="Caminho_1938" data-name="Caminho 1938" d="M15.077,0a7.115,7.115,0,0,1,7.159,7.052h0V14.66h-9.7a1.223,1.223,0,1,0,0,2.446h9.7V24.7a7.136,7.136,0,0,1-7.191,7.068H7.175A7.119,7.119,0,0,1,0,24.714H0V7.068A7.136,7.136,0,0,1,7.191,0h7.886ZM26.271,10.4A1.213,1.213,0,0,1,28,10.388h0L32.64,15.01a1.213,1.213,0,0,1,.365.874,1.177,1.177,0,0,1-.365.858h0L28,21.363a1.224,1.224,0,1,1-1.731-1.731h0l2.541-2.525H22.236V14.66h6.575l-2.541-2.525A1.227,1.227,0,0,1,26.271,10.4Z" transform="translate(0 0)" fill="#1ec48c"/>
  </g>
</svg>
