<svg xmlns="http://www.w3.org/2000/svg" width="28.572" height="16.777" viewBox="0 0 28.572 16.777">
  <g id="noun_Machine_3318022" transform="translate(313.917 -40.52)">
    <g id="Grupo_147" data-name="Grupo 147" transform="translate(-313.917 40.52)">
      <path id="Caminho_1563" data-name="Caminho 1563" d="M66.512,41.6l-.336-1.15.835-1.353-.952-1.186-1.5.522-1.051-.576-.366-1.547-1.512-.165-.692,1.431-1.15.336-1.353-.835-1.186.952.522,1.5-.576,1.051-1.547.366-.165,1.512,1.431.692.335,1.15-.835,1.353.952,1.186,1.5-.522,1.051.576.366,1.547,1.512.165.692-1.431,1.15-.336,1.353.835,1.186-.952-.522-1.5.576-1.05,1.547-.366.165-1.512Zm-3.88,3.93a3.286,3.286,0,1,1,2.235-4.074A3.286,3.286,0,0,1,62.632,45.532Z" transform="translate(-39.37 -32.369)" fill="#feb53e"/>
      <path id="Caminho_1564" data-name="Caminho 1564" d="M22.1,33.091l1.758-1.269-.581-1.991-2.165-.125-1.023-1.274.346-2.14-1.818-1L17,26.735l-1.624-.178L14.106,24.8l-1.991.581-.125,2.165-1.274,1.023-2.141-.346-1,1.818L9.019,31.66l-.178,1.624L7.083,34.554l.581,1.991,2.165.125,1.023,1.274-.346,2.14,1.818,1,1.619-1.442,1.624.178,1.269,1.758L18.829,41l.125-2.165,1.274-1.023,2.14.346,1-1.819-1.442-1.619Zm-5.3,4.659a4.753,4.753,0,1,1,3.232-5.894A4.753,4.753,0,0,1,16.8,37.751Z" transform="translate(-7.083 -24.799)" fill="#feb53e"/>
    </g>
  </g>
</svg>
