<svg xmlns="http://www.w3.org/2000/svg" width="10px" height="10px" viewBox="0 0 23.315 16.653">
  <g id="noun_Mail_4046709" transform="translate(-2 -6)">
    <g id="Grupo_285" data-name="Grupo 285" transform="translate(2 6)">
      <path id="Caminho_1781" data-name="Caminho 1781" d="M3.665,6A1.68,1.68,0,0,0,2,7.665V20.988a1.68,1.68,0,0,0,1.665,1.665H23.649a1.68,1.68,0,0,0,1.665-1.665V7.665A1.68,1.68,0,0,0,23.649,6Zm1.5,1.665H22.148l-8.491,5.661Zm-1.5,1,9.53,6.354a.833.833,0,0,0,.924,0l9.53-6.354V20.988H3.665Z" transform="translate(-2 -6)" fill="#4a4a4a"/>
    </g>
  </g>
</svg>
