<svg id="Grupo_33" data-name="Grupo 33" xmlns="http://www.w3.org/2000/svg" xmlns:xlink="http://www.w3.org/1999/xlink" width="14.4" height="14.4" viewBox="0 0 14.4 14.4">
  <defs>
    <clipPath id="clip-path">
      <path id="Icon_zoom" data-name="Icon/zoom" d="M.007,13.387l.9-7.2a.9.9,0,0,1,1.529-.525l6.3,6.3a.9.9,0,0,1-.525,1.529l-7.2.9A.919.919,0,0,1,.9,14.4.9.9,0,0,1,.007,13.387ZM11.963,8.736l-6.3-6.3A.9.9,0,0,1,6.188.907l7.2-.9a.9.9,0,0,1,1.005,1l-.9,7.2a.9.9,0,0,1-.9.79A.884.884,0,0,1,11.963,8.736Z" transform="translate(0 0)"/>
    </clipPath>
  </defs>
  <path fill="#7a7a7a" id="Icon_zoom-2" data-name="Icon/zoom" d="M.007,13.387l.9-7.2a.9.9,0,0,1,1.529-.525l6.3,6.3a.9.9,0,0,1-.525,1.529l-7.2.9A.919.919,0,0,1,.9,14.4.9.9,0,0,1,.007,13.387ZM11.963,8.736l-6.3-6.3A.9.9,0,0,1,6.188.907l7.2-.9a.9.9,0,0,1,1.005,1l-.9,7.2a.9.9,0,0,1-.9.79A.884.884,0,0,1,11.963,8.736Z" transform="translate(0 0)"/>
</svg>
