<svg xmlns="http://www.w3.org/2000/svg" width="37.983" height="31.574" viewBox="0 0 37.983 31.574">
  <path id="MEU_PERFIL" data-name="MEU PERFIL" d="M37.177,7.314l-4-6.389A1.974,1.974,0,0,0,31.5,0H6.59A1.974,1.974,0,0,0,4.918.925l-4,6.389c-2.066,3.3-.234,7.887,3.626,8.412a6.409,6.409,0,0,0,.845.056A6.089,6.089,0,0,0,9.938,13.74a6.094,6.094,0,0,0,9.1,0,6.094,6.094,0,0,0,9.1,0,6.109,6.109,0,0,0,4.551,2.041,6.34,6.34,0,0,0,.845-.056c3.873-.518,5.71-5.106,3.638-8.412ZM32.706,17.76a7.824,7.824,0,0,1-1.819-.234v6.155H7.206V17.526a8.17,8.17,0,0,1-1.819.234,8.321,8.321,0,0,1-1.11-.074,7.755,7.755,0,0,1-1.011-.222V29.6a1.971,1.971,0,0,0,1.973,1.973H32.867A1.971,1.971,0,0,0,34.84,29.6V17.464a6.3,6.3,0,0,1-1.011.222,8.576,8.576,0,0,1-1.122.074Z" transform="translate(-0.056)"/>
</svg>
