<svg xmlns="http://www.w3.org/2000/svg" width="16.64" height="16.641" viewBox="0 0 16.64 16.641">
  <g id="noun_Phone_2301004" transform="translate(-5.003 -73.513)">
    <g id="Grupo_148" data-name="Grupo 148" transform="translate(5.003 73.513)">
      <path id="Caminho_1565" data-name="Caminho 1565" d="M17.764,21.646c-.083,0-.166,0-.253-.007a9.065,9.065,0,0,1-3.327-.978,17.839,17.839,0,0,1-5.854-4.582h0A16,16,0,0,1,5.5,11.35a6.5,6.5,0,0,1-.481-2.779,2.5,2.5,0,0,1,.812-1.733L7.1,5.566A1.724,1.724,0,0,1,9.64,5.559c.239.22.472.46.7.692.113.115.226.231.342.348L11.685,7.6a1.745,1.745,0,0,1,.007,2.591c-.222.222-.438.431-.653.64-.183.178-.366.355-.547.536a6.931,6.931,0,0,0,1.024,1.577,12.552,12.552,0,0,0,3.1,2.809l.024.015a3.872,3.872,0,0,0,.483.268c.048.024.1.048.146.074l1.191-1.191a1.725,1.725,0,0,1,2.548,0l2.062,2.062a1.722,1.722,0,0,1,0,2.572c-.135.135-.272.268-.4.4-.268.263-.521.51-.766.771A2.71,2.71,0,0,1,17.764,21.646Z" transform="translate(-5.003 -5.005)" fill="#1ec48c"/>
    </g>
  </g>
</svg>
