<svg xmlns="http://www.w3.org/2000/svg" width="27.269" height="27.269" viewBox="0 0 27.269 27.269">
  <g id="noun_Box_1542383" transform="translate(-6 -6)">
    <g id="Grupo_247" data-name="Grupo 247" transform="translate(6 6)">
      <path id="Caminho_1666" data-name="Caminho 1666" d="M19.576,958.365a.622.622,0,0,0-.194.048L6.368,964.126a.689.689,0,0,0-.368.62V979.3a.637.637,0,0,0,.368.562l12.956,5.683a.774.774,0,0,0,.31.087,1.1,1.1,0,0,0,.31-.087L32.9,979.86a.634.634,0,0,0,.368-.562V964.785a.7.7,0,0,0-.368-.658l-13.015-5.713A.624.624,0,0,0,19.576,958.365Zm.058,1.288L31.109,964.7l-4.726,2.072L14.9,961.735Zm-6.275,2.759,11.485,5.035-5.21,2.285L8.159,964.7Zm18.67,3.224v13.255l-11.775,5.17V970.807l5.268-2.3v2.876a.62.62,0,1,0,1.239,0v-3.428Zm-24.79.01,11.775,5.161v13.245L7.239,978.892Z" transform="translate(-6 -958.362)" fill="#7c7c7c"/>
    </g>
  </g>
</svg>
