<svg xmlns="http://www.w3.org/2000/svg" enable-background="new 0 0 24 24" viewBox="0 0 24 24" id="ProductDesign"><path d="M19.7881,7.1841c-0.0196-0.0251-0.0468-0.0403-0.0683-0.0631c-0.0422-0.0447-0.0844-0.0878-0.1346-0.1245
			c-0.0391-0.0285-0.0804-0.0497-0.1227-0.072c-0.0313-0.0166-0.0576-0.04-0.0909-0.0534l-7-2.7998
			c-0.2393-0.0947-0.5039-0.0947-0.7432,0l-7,2.7998c-0.0345,0.0139-0.0618,0.038-0.0941,0.0552
			C4.4935,6.9481,4.4535,6.9686,4.4156,6.9961C4.365,7.033,4.3222,7.0763,4.2797,7.1215C4.2583,7.1442,4.2313,7.1592,4.2119,7.1841
			l-2.3198,2.9702c-0.1938,0.2485-0.2598,0.5737-0.1768,0.8779c0.0825,0.3037,0.3032,0.5513,0.5962,0.6675L4,12.3699v3.8303
			c0,0.4092,0.249,0.7764,0.6284,0.9287l7,2.7998c0.0119,0.0048,0.0248,0.0027,0.0367,0.007C11.7735,19.9745,11.8854,20,12,20
			s0.2265-0.0255,0.3348-0.0643c0.012-0.0043,0.0248-0.0023,0.0367-0.007l7-2.7998C19.751,16.9766,20,16.6094,20,16.2002v-3.8303
			l1.6885-0.6702c0.293-0.1162,0.5137-0.3638,0.5962-0.6675c0.083-0.3042,0.0171-0.6294-0.1768-0.8779L19.7881,7.1841z
			 M5.3666,10.7601l-1.076-0.4271l1.0352-1.3257l2.8027,1.1211l2.3044,0.9221L9.459,12.3843l-4.0898-1.6235
			C5.3683,10.7604,5.3674,10.7604,5.3666,10.7601z M11,17.5234l-5-2v-2.3598l3.4409,1.3657
			c0.1147,0.0455,0.2331,0.0648,0.3509,0.067c0.006,0.0001,0.0118,0.0034,0.0178,0.0034c0.0164,0,0.0308-0.0104,0.0471-0.0112
			c0.1202-0.0057,0.2347-0.0341,0.3446-0.0815c0.033-0.0141,0.0631-0.0273,0.0945-0.045c0.1221-0.0687,0.2355-0.1538,0.3219-0.2725
			L11,13.666V17.5234z M12,9.5229L9.1722,8.3917l-1.4796-0.592L12,6.0771l4.3074,1.7226l-1.4796,0.592L12,9.5229z M18,15.5234l-5,2
			V13.666l0.3823,0.5234c0.0858,0.1177,0.1984,0.2023,0.3196,0.2706c0.0335,0.019,0.0659,0.033,0.1013,0.048
			c0.1058,0.0448,0.2156,0.0716,0.3309,0.0783c0.0195,0.0012,0.0367,0.0133,0.0563,0.0133c0.0071,0,0.0141-0.0039,0.0212-0.004
			c0.1168-0.0023,0.2341-0.0216,0.3475-0.0663L18,13.1636V15.5234z M18.6334,10.7601c-0.0009,0.0003-0.0017,0.0004-0.0026,0.0007
			l-4.0898,1.6235l-0.9739-1.3338l2.3044-0.9221l2.8027-1.1211l1.0352,1.3257L18.6334,10.7601z" fill="#07c48d" class="color000000 svgShape"></path></svg>