<svg xmlns="http://www.w3.org/2000/svg" width="35.971" height="31.971" viewBox="0 0 35.971 31.971">
  <path id="PRODUTOS" d="M18.372,17.341a9.1,9.1,0,0,1,3.091,1.542l10.085-3.36a1,1,0,0,0,.631-1.261L28.407,2.947a1,1,0,0,0-1.261-.631L23.33,3.591,25.4,9.8l-3.791,1.255L19.54,4.846l-3.847,1.28a1,1,0,0,0-.631,1.261Zm17.548,3.041-.637-1.9a1,1,0,0,0-1.261-.631L20.689,22.3a5.967,5.967,0,0,0-4.59-2.311L9.892,1.368A2,2,0,0,0,7.993,0H1A1,1,0,0,0,0,1V3A1,1,0,0,0,1,4H6.551l5.758,17.279a5.953,5.953,0,0,0-2.248,5.651,5.992,5.992,0,0,0,11.909-.837l13.32-4.446A1,1,0,0,0,35.919,20.383ZM15.986,28.975a3,3,0,1,1,3-3A3,3,0,0,1,15.986,28.975Z" fill="#fff"/>
</svg>
