<svg xmlns="http://www.w3.org/2000/svg" width="27.569" height="24.22" viewBox="0 0 27.569 24.22">
  <g id="noun_Store_1433650" transform="translate(-7.6 -12.8)">
    <g id="Group" transform="translate(7.6 12.8)">
      <path id="Compound_Path" data-name="Compound Path" d="M7.6,19.725a2.828,2.828,0,0,0,1.951,2.7v12a2.6,2.6,0,0,0,2.6,2.6H30.617a2.6,2.6,0,0,0,2.6-2.6v-12a2.828,2.828,0,0,0,1.951-2.7V18.262h0V18h0l-2.861-4.877a.65.65,0,0,0-.553-.325H11.664a.65.65,0,0,0-.52.293L7.73,17.9h0v.065H7.665v.13h0v.1h0ZM27.561,35.72H22.782V28.957a1.3,1.3,0,0,1,1.3-1.3h2.178a1.3,1.3,0,0,1,1.3,1.3Zm3.056,0H28.862V28.957a2.6,2.6,0,0,0-2.6-2.6H24.083a2.6,2.6,0,0,0-2.6,2.6V35.72h-9.33a1.3,1.3,0,0,1-1.3-1.3V22.553a2.828,2.828,0,0,0,1.528-.715,3.576,3.576,0,0,0,6.079.423,3.576,3.576,0,0,0,5.852,0,3.576,3.576,0,0,0,6.112-.455,2.828,2.828,0,0,0,1.528.715v11.9a1.3,1.3,0,0,1-1.333,1.3ZM11.989,14.068H31.3l2.568,4.389v1.268a1.544,1.544,0,0,1-3.088,0,.65.65,0,1,0-1.3,0,2.86,2.86,0,0,0,.033.325.65.65,0,0,0-.033.163,2.276,2.276,0,1,1-4.551,0,.65.65,0,0,0-1.3,0,2.276,2.276,0,1,1-4.551,0,.65.65,0,0,0-1.3,0,2.276,2.276,0,0,1-4.551,0,.65.65,0,0,0-.033-.163,2.861,2.861,0,0,0,.033-.325.65.65,0,0,0-1.3,0,1.544,1.544,0,0,1-3.088,0V18.489Z" transform="translate(-7.6 -12.8)" fill="#7c7c7c"/>
      <path id="Compound_Path-2" data-name="Compound Path" d="M30.527,54.5H25.65a.65.65,0,0,0-.65.65v3.674a.65.65,0,0,0,.65.65h4.876a.65.65,0,0,0,.65-.65V55.15A.65.65,0,0,0,30.527,54.5Zm-.65,3.674H26.3V55.8h3.576Z" transform="translate(-19.343 -40.943)" fill="#7c7c7c"/>
    </g>
  </g>
</svg>
