<svg xmlns="http://www.w3.org/2000/svg" width="23.99" height="27.144" viewBox="0 0 23.99 27.144">
  <g id="noun_tote_bag_3219289" data-name="noun_tote bag_3219289" transform="translate(-3.747 -1.085)">
    <g id="Layer_25" data-name="Layer 25" transform="translate(3.747 1.085)">
      <path id="Caminho_1779" data-name="Caminho 1779" d="M4.264,32.287a2.1,2.1,0,0,0,1.583.721h19.79a2.1,2.1,0,0,0,2.08-2.389l-2.219-16a2.109,2.109,0,0,0-2.08-1.811H8.066a2.109,2.109,0,0,0-2.08,1.811l-2.219,16a2.1,2.1,0,0,0,.5,1.668Zm.677-1.5,2.219-16a.919.919,0,0,1,.907-.79H23.418a.919.919,0,0,1,.907.789l2.219,16a.916.916,0,0,1-.907,1.041H5.847a.915.915,0,0,1-.906-1.041Z" transform="translate(-3.747 -5.863)" fill="#7c7c7c"/>
      <path id="Caminho_1780" data-name="Caminho 1780" d="M24.879,6.686a.592.592,0,0,0,.592-.592V5.807a4.722,4.722,0,1,0-9.444,0v.287a.592.592,0,1,0,1.185,0V5.807a3.538,3.538,0,1,1,7.075,0v.287a.592.592,0,0,0,.592.592Z" transform="translate(-8.754 -1.085)" fill="#7c7c7c"/>
    </g>
  </g>
</svg>
