<svg xmlns="http://www.w3.org/2000/svg" width="215.484" height="197.143" viewBox="0 0 215.484 197.143">
  <path id="Caminho_2059" data-name="Caminho 2059" d="M52.534,196.179c10.416,0,18.885-7.575,18.885-16.9a15.526,15.526,0,0,0-2.963-9.065h.509c-8.294-9.065-7.417-16.483,1.368-19.078H99.387a5.979,5.979,0,0,0,5.962-5.962V119.377c2.034-17.6,9.556-12.38,18.411-6.926,21.392,13.169,35.613-18.026,18.324-28.7-13.572-8.382-19.446,6.032-29.388,4.542-3.84-.579-6.505-4.734-7.347-11.047v-25.5a5.979,5.979,0,0,0-5.962-5.962H73.944c-12.046-1.526-14.326-9.627-5-19.814h-.509A15.526,15.526,0,0,0,71.4,16.9C71.419,7.575,62.967,0,52.534,0,42.118,0,33.667,7.575,33.667,16.9a15.526,15.526,0,0,0,2.963,9.065h-.123c9.328,10.188,7.067,18.306-5,19.814H5.962A5.979,5.979,0,0,0,0,51.745V78.328c1.911,10.942,9.8,12.73,19.621,3.735v.123a15.526,15.526,0,0,1,9.065-2.963c9.328,0,16.9,8.452,16.9,18.867s-7.575,18.867-16.9,18.867a15.526,15.526,0,0,1-9.065-2.963v.509c-9.819-9-17.71-7.189-19.621,3.752v26.933a5.979,5.979,0,0,0,5.962,5.962h29.16c8.785,2.6,9.679,10.012,1.368,19.078h.123a15.65,15.65,0,0,0-2.963,9.065c.018,9.328,8.469,16.9,18.885,16.886Zm110.4.964H162.9c-10.416,0-18.885-7.575-18.885-16.9a15.526,15.526,0,0,1,2.963-9.065h-.123c8.294-9.065,7.417-16.483-1.368-19.078h-29.16a5.979,5.979,0,0,1-5.962-5.962V119.254c1.4-4.068,3.191-5.506,5.3-5.559a7.666,7.666,0,0,1,3.069.7c3.051,1.263,6.628,3.91,10.521,5.418,15.01,5.786,27.9-8.82,27.039-23.83a20.075,20.075,0,0,0-3.542-9.7c-7.663-11.713-19.008-12.818-29.949-6.137-5.576,3.419-10.012,6-12.555-2.052l.14-25.408a5.991,5.991,0,0,1,5.962-5.962h25.531c12.046-1.526,14.326-9.627,5-19.814h.123a15.526,15.526,0,0,1-2.963-9.065c0-9.328,8.452-16.9,18.885-16.9h.035c10.416,0,18.885,7.575,18.885,16.9a15.526,15.526,0,0,1-2.963,9.065h.123c-9.328,10.188-7.066,18.306,5,19.814h25.531a5.979,5.979,0,0,1,5.962,5.962V79.275c-1.911,10.942-9.8,12.73-19.621,3.735v.123a15.526,15.526,0,0,0-9.065-2.963c-9.328,0-16.9,8.452-16.9,18.867s7.575,18.885,16.9,18.885a15.526,15.526,0,0,0,9.065-2.963v.509c9.837-9,17.71-7.189,19.621,3.752V146.1a5.979,5.979,0,0,1-5.962,5.962h-29.16c-8.785,2.6-9.662,10.012-1.368,19.078h-.14a15.526,15.526,0,0,1,2.963,9.065c-.018,9.364-8.469,16.939-18.885,16.939Z" transform="translate(0)" fill="#2ea853" fill-rule="evenodd"/>
</svg>
