<svg xmlns="http://www.w3.org/2000/svg" enable-background="new 0 0 512 512" viewBox="0 0 512 512" id="Ring"><path d="M373.98,312.37c-6.79-18.77-10.27-38.58-10.27-58.55v-51.36c0-27.8-12.06-52.95-31.55-71.15
		c-19.49-18.21-46.41-29.47-76.16-29.47c-59.49,0-107.71,45.04-107.71,100.62v51.36c0,19.97-3.48,39.78-10.27,58.55l-25.72,71.01
		c-3.99,11.04,4.18,22.7,15.92,22.7h255.56c11.74,0,19.91-11.66,15.92-22.7L373.98,312.37z" fill="#ffffff" class="color000000 svgShape"></path><circle cx="256" cy="81.419" r="20.419" fill="#ffffff" class="color000000 svgShape"></circle><path d="M256 451c17.62 0 32.88-10.15 40.23-24.92h-80.46C223.12 440.85 238.38 451 256 451zM106.583 182.091c-4.033-3.771-10.361-3.56-14.134.474C74.06 202.229 63.932 228.309 63.932 256s10.128 53.771 28.518 73.436c1.969 2.105 4.634 3.17 7.306 3.17 2.447 0 4.9-.893 6.828-2.696 4.034-3.772 4.246-10.101.474-14.134-30.823-32.96-30.823-86.591 0-119.551C110.83 192.191 110.618 185.863 106.583 182.091z" fill="#ffffff" class="color000000 svgShape"></path><path d="M64.36 158.276c3.772-4.033 3.561-10.361-.473-14.134s-10.362-3.561-14.134.474C21.876 174.425 6.523 213.981 6.523 256s15.353 81.575 43.229 111.384c1.969 2.105 4.634 3.17 7.306 3.17 2.447 0 4.9-.893 6.829-2.696 4.034-3.772 4.246-10.101.473-14.134C13.968 299.839 13.968 212.161 64.36 158.276zM419.55 182.564c-3.772-4.034-10.1-4.247-14.134-.474-4.034 3.772-4.246 10.101-.474 14.134 30.823 32.96 30.823 86.591 0 119.551-3.772 4.033-3.561 10.361.474 14.134 1.928 1.804 4.381 2.696 6.828 2.696 2.671 0 5.337-1.064 7.306-3.17 18.39-19.664 28.518-45.744 28.518-73.436S437.94 202.229 419.55 182.564z" fill="#ffffff" class="color000000 svgShape"></path><path d="M462.247,144.616c-3.772-4.034-10.101-4.247-14.134-0.474c-4.034,3.772-4.246,10.101-0.473,14.134
		c50.392,53.885,50.392,141.563,0,195.447c-3.772,4.033-3.561,10.361,0.473,14.134c1.929,1.804,4.381,2.696,6.829,2.696
		c2.671,0,5.337-1.064,7.306-3.17c27.877-29.809,43.229-69.365,43.229-111.384S490.124,174.425,462.247,144.616z" fill="#ffffff" class="color000000 svgShape"></path></svg>