<svg xmlns="http://www.w3.org/2000/svg" width="22.055" height="28.841" viewBox="0 0 22.055 28.841">
  <g id="noun_bill_2763268" transform="translate(372 -57)">
    <g id="Grupo_207" data-name="Grupo 207" transform="translate(-372 57)">
      <path id="Caminho_1630" data-name="Caminho 1630" d="M2,2.848V29.992a.851.851,0,0,0,.848.848H23.206a.851.851,0,0,0,.848-.848V6.241a.88.88,0,0,0-.254-.6L20.407,2.246a.81.81,0,0,0-.28-.187A.938.938,0,0,0,19.813,2H2.848A.851.851,0,0,0,2,2.848ZM3.7,3.7H19.466l2.893,2.893V29.144H3.7Z" transform="translate(-2 -2)" fill="#7c7c7c"/>
      <path id="Caminho_1631" data-name="Caminho 1631" d="M14.545,16.634a.851.851,0,0,1-.848-.848.848.848,0,0,0-1.7,0,2.554,2.554,0,0,0,1.7,2.392v.153a.848.848,0,0,0,1.7,0v-.153a2.541,2.541,0,0,0-.848-4.937.848.848,0,1,1,.848-.848.848.848,0,0,0,1.7,0A2.554,2.554,0,0,0,15.393,10V9.848a.848.848,0,1,0-1.7,0V10a2.541,2.541,0,0,0,.848,4.937.848.848,0,0,1,0,1.7Z" transform="translate(-3.517 -3.062)" fill="#7c7c7c"/>
      <path id="Caminho_1632" data-name="Caminho 1632" d="M20.42,25H6.848a.848.848,0,0,0,0,1.7H20.42a.848.848,0,0,0,0-1.7Z" transform="translate(-2.607 -5.49)" fill="#7c7c7c"/>
      <path id="Caminho_1633" data-name="Caminho 1633" d="M20.42,29H6.848a.848.848,0,1,0,0,1.7H20.42a.848.848,0,1,0,0-1.7Z" transform="translate(-2.607 -6.097)" fill="#7c7c7c"/>
    </g>
  </g>
</svg>
