<svg xmlns="http://www.w3.org/2000/svg" width="31.971" height="31.971" viewBox="0 0 31.971 31.971">
  <path id="ÁREA_DE_VENDAS" data-name="ÁREA DE VENDAS" d="M15.985,25.976A12.988,12.988,0,1,0,3,12.988,12.986,12.986,0,0,0,15.985,25.976ZM14.6,6.082V5.033A1.034,1.034,0,0,1,15.636,4h.693a1.034,1.034,0,0,1,1.037,1.037V6.094a4.923,4.923,0,0,1,2.685.962.7.7,0,0,1,.075,1.068l-1.018.968a.7.7,0,0,1-.874.062,2.055,2.055,0,0,0-1.111-.318H14.693a1.086,1.086,0,0,0-1.018,1.143,1.128,1.128,0,0,0,.756,1.1l3.89,1.168A3.912,3.912,0,0,1,21.049,16a3.85,3.85,0,0,1-3.69,3.9v1.049a1.034,1.034,0,0,1-1.037,1.037h-.693a1.034,1.034,0,0,1-1.037-1.037V19.882a4.923,4.923,0,0,1-2.685-.962.7.7,0,0,1-.075-1.068l1.018-.968a.7.7,0,0,1,.874-.062,2.055,2.055,0,0,0,1.111.318h2.429A1.086,1.086,0,0,0,18.283,16a1.128,1.128,0,0,0-.756-1.1l-3.89-1.168a3.912,3.912,0,0,1-2.729-3.753,3.854,3.854,0,0,1,3.69-3.9Zm15.373,15.9H27.943a15.134,15.134,0,0,1-4.558,4h3.984a.557.557,0,0,1,.6.5v1a.557.557,0,0,1-.6.5H4.6a.557.557,0,0,1-.6-.5v-1a.557.557,0,0,1,.6-.5H8.58a15.209,15.209,0,0,1-4.558-4H2a2,2,0,0,0-2,2v5.995a2,2,0,0,0,2,2H29.973a2,2,0,0,0,2-2V23.978A2,2,0,0,0,29.973,21.98Z" fill="#fff"/>
</svg>
