<svg xmlns="http://www.w3.org/2000/svg" width="30.177" height="31.766" viewBox="0 0 30.177 31.766">
  <path id="CONFIGURAÇÕES" d="M16.228,0a3.418,3.418,0,0,1,2.889,1.652,2.823,2.823,0,0,1,.438,1.684,2.456,2.456,0,0,0,.373,1.4,3.134,3.134,0,0,0,4.09,1.1A3.355,3.355,0,0,1,28.58,7.036h0L29.667,8.91a3.22,3.22,0,0,1-1.2,4.495,2.894,2.894,0,0,0-1.039,3.971,2.457,2.457,0,0,0,1.006,1.016,3.655,3.655,0,0,1,1.315,1.255,3.205,3.205,0,0,1-.032,3.256h0L28.58,24.809a3.331,3.331,0,0,1-4.593,1.175,2.589,2.589,0,0,0-1.428-.365,3.031,3.031,0,0,0-3,2.891,3.284,3.284,0,0,1-3.36,3.256H13.988a3.288,3.288,0,0,1-3.376-3.256,3.005,3.005,0,0,0-2.987-2.891,2.519,2.519,0,0,0-1.428.365,3.432,3.432,0,0,1-1.721.476,3.389,3.389,0,0,1-2.889-1.652h0L.467,22.9a3.168,3.168,0,0,1-.032-3.256,3.364,3.364,0,0,1,1.3-1.255,2.6,2.6,0,0,0,1.023-1.016A2.913,2.913,0,0,0,1.7,13.405,3.247,3.247,0,0,1,.5,8.91h0L1.587,7.036A3.374,3.374,0,0,1,6.164,5.829a3.118,3.118,0,0,0,4.074-1.1,2.455,2.455,0,0,0,.373-1.4,2.835,2.835,0,0,1,.454-1.684A3.486,3.486,0,0,1,13.939,0h2.289Zm-1.12,11.4a4.489,4.489,0,1,0,0,8.974,4.487,4.487,0,1,0,0-8.974Z" transform="translate(0)" fill="#fff"/>
</svg>
