<svg xmlns="http://www.w3.org/2000/svg" width="37.047" height="32.931" viewBox="0 0 37.047 32.931">
  <path id="FontAwsome_share-square_" data-name="FontAwsome (share-square)" d="M36.564,11.413,27.3,20.159a1.545,1.545,0,0,1-2.6-1.122V14.408c-6.937.047-10.882,1.28-11.377,5.854A14.214,14.214,0,0,0,14.1,25.43a1.03,1.03,0,0,1-1.608,1.115,12.381,12.381,0,0,1-4.774-9.221c0-9.258,7.564-11.095,16.98-11.147V1.544A1.545,1.545,0,0,1,27.3.422l9.262,8.746A1.544,1.544,0,0,1,36.564,11.413ZM24.7,24.385v4.43H4.116V8.233H7.391a.771.771,0,0,0,.556-.238,12.539,12.539,0,0,1,3.281-2.423.771.771,0,0,0-.357-1.456H3.087A3.087,3.087,0,0,0,0,7.2v22.64a3.087,3.087,0,0,0,3.087,3.087h22.64a3.087,3.087,0,0,0,3.087-3.087V24.132a.772.772,0,0,0-1.03-.727,4.62,4.62,0,0,1-2.2.217.773.773,0,0,0-.888.763Z" transform="translate(0 0)"/>
</svg>
