<svg id="Grupo_11" data-name="Grupo 11" xmlns="http://www.w3.org/2000/svg" xmlns:xlink="http://www.w3.org/1999/xlink" width="20" height="20" viewBox="0 0 20 20">
  <defs>
    <clipPath id="clip-path">
      <path id="Icon_shape-star" data-name="Icon/shape-star" d="M19.286,6.954l-5.9-.9L10.75.448a.847.847,0,0,0-1.495,0L6.614,6.055l-5.9.9a.845.845,0,0,0-.673.594.9.9,0,0,0,.21.9l4.27,4.366L3.514,18.978a.9.9,0,0,0,.332.855.8.8,0,0,0,.877.066L10,16.989,15.277,19.9a.8.8,0,0,0,.877-.066.9.9,0,0,0,.332-.855l-1.007-6.167,4.27-4.366a.9.9,0,0,0,.21-.9.845.845,0,0,0-.672-.595Z" transform="translate(0 0)" fill="#feb53e"/>
    </clipPath>
  </defs>
  <path id="Icon_shape-star-2" data-name="Icon/shape-star" d="M19.286,6.954l-5.9-.9L10.75.448a.847.847,0,0,0-1.495,0L6.614,6.055l-5.9.9a.845.845,0,0,0-.673.594.9.9,0,0,0,.21.9l4.27,4.366L3.514,18.978a.9.9,0,0,0,.332.855.8.8,0,0,0,.877.066L10,16.989,15.277,19.9a.8.8,0,0,0,.877-.066.9.9,0,0,0,.332-.855l-1.007-6.167,4.27-4.366a.9.9,0,0,0,.21-.9.845.845,0,0,0-.672-.595Z" transform="translate(0 0)" fill="#feb53e"/>
</svg>
