<svg xmlns="http://www.w3.org/2000/svg" width="21.602" height="20.668" viewBox="0 0 21.602 20.668">
  <g id="noun_profile_1480236" transform="translate(-37.692 -38.174)">
    <g id="Group" transform="translate(37.692 38.174)">
      <path id="Compound_Path" data-name="Compound Path" d="M34.324,61.032a7.866,7.866,0,0,0-5.566-6.812.58.58,0,0,0-.609.145,6.547,6.547,0,0,1-4.638,1.652,6.547,6.547,0,0,1-4.638-1.652.58.58,0,0,0-.609-.145,7.847,7.847,0,0,0-5.508,6.812,2,2,0,0,0,.464,1.565,2.029,2.029,0,0,0,1.536.7H32.324a2.029,2.029,0,0,0,1.536-.7A2,2,0,0,0,34.324,61.032Zm-1.362.812a.87.87,0,0,1-.667.29H14.757a.87.87,0,0,1-.667-.29.812.812,0,0,1-.2-.667,6.769,6.769,0,0,1,4.464-5.739,7.941,7.941,0,0,0,5.189,1.739,8,8,0,0,0,5.189-1.739,6.772,6.772,0,0,1,4.464,5.768.812.812,0,0,1-.2.638Z" transform="translate(-12.74 -42.625)" fill="#4a4a4a"/>
      <path id="Compound_Path-2" data-name="Compound Path" d="M37.857,25.634c2.725,0,4.957-2.551,4.957-5.653S40.582,14.3,37.857,14.3,32.9,16.851,32.9,19.953,35.132,25.634,37.857,25.634Zm0-10.146c2.087,0,3.8,2.029,3.8,4.493s-1.71,4.493-3.8,4.493-3.8-2.029-3.8-4.493,1.71-4.522,3.8-4.522Z" transform="translate(-27.056 -14.3)" fill="#4a4a4a"/>
    </g>
  </g>
</svg>
