<?xml version="1.0" encoding="UTF-8"?>
<!DOCTYPE svg PUBLIC "-//W3C//DTD SVG 1.1//EN" "http://www.w3.org/Graphics/SVG/1.1/DTD/svg11.dtd">
<!-- Creator: CorelDRAW -->
<svg xmlns="http://www.w3.org/2000/svg" xml:space="preserve" width="19.9352mm" height="7.1418mm" version="1.1" style="shape-rendering:geometricPrecision; text-rendering:geometricPrecision; image-rendering:optimizeQuality; fill-rule:evenodd; clip-rule:evenodd"
viewBox="0 0 48.73 17.46"
 xmlns:xlink="http://www.w3.org/1999/xlink"
 xmlns:xodm="http://www.corel.com/coreldraw/odm/2003">
 <defs>
  <style type="text/css">
   <![CDATA[
    .fil1 {fill:#5BBB61}
    .fil0 {fill:#5BBB61;fill-rule:nonzero}
   ]]>
  </style>
 </defs>
 <g id="Camada_x0020_1">
  <metadata id="CorelCorpID_0Corel-Layer"/>
  <path class="fil0" d="M27.87 13.82l0.84 -0.59 0.17 0.31 -0.91 0.47 -0.1 -0.18zm-2.84 3.52l0 -3.12c0,-0.33 0.09,-0.57 0.26,-0.73 0.17,-0.16 0.43,-0.23 0.77,-0.23l0.37 0 0 0.44 -0.46 0c-0.14,0 -0.24,0.04 -0.32,0.11 -0.07,0.08 -0.11,0.18 -0.11,0.31l0 3.21 -0.51 0zm-0.41 -2.53l0 -0.4 1.86 0 0 0.4 -1.86 0zm4.04 2.53l0 -0.89 -0.09 0 0 -1.03c0,-0.2 -0.05,-0.36 -0.16,-0.46 -0.11,-0.1 -0.26,-0.16 -0.46,-0.16 -0.11,0 -0.23,0 -0.36,0.01 -0.12,0 -0.24,0.01 -0.35,0.01 -0.11,0 -0.21,0.01 -0.29,0.02l0 -0.47c0.08,-0.01 0.17,-0.01 0.26,-0.02 0.09,-0.01 0.18,-0.01 0.28,-0.01 0.1,-0 0.19,-0 0.28,-0 0.3,0 0.55,0.04 0.74,0.11 0.19,0.07 0.34,0.19 0.43,0.35 0.09,0.16 0.14,0.38 0.14,0.66l0 1.88 -0.42 0zm-0.97 0.08c-0.22,0 -0.41,-0.04 -0.58,-0.11 -0.16,-0.08 -0.29,-0.19 -0.37,-0.33 -0.09,-0.14 -0.13,-0.32 -0.13,-0.52 0,-0.21 0.05,-0.39 0.14,-0.53 0.09,-0.14 0.23,-0.25 0.41,-0.32 0.18,-0.07 0.4,-0.11 0.66,-0.11l0.81 0 0 0.4 -0.83 0c-0.22,0 -0.38,0.05 -0.49,0.16 -0.11,0.1 -0.17,0.24 -0.17,0.4 0,0.16 0.06,0.29 0.17,0.39 0.11,0.1 0.28,0.15 0.49,0.15 0.13,0 0.25,-0.02 0.36,-0.07 0.11,-0.05 0.21,-0.12 0.29,-0.23 0.08,-0.11 0.12,-0.26 0.12,-0.45l0.14 0.21c-0.02,0.21 -0.07,0.39 -0.15,0.53 -0.08,0.14 -0.2,0.25 -0.34,0.33 -0.15,0.07 -0.32,0.11 -0.53,0.11zm3.76 0.02c-0.24,0 -0.46,-0.05 -0.65,-0.16 -0.19,-0.11 -0.34,-0.26 -0.45,-0.47 -0.11,-0.21 -0.17,-0.45 -0.18,-0.74l0.14 0 0 1.27 -0.42 0 0 -4.06 0.53 0 0 1.97 -0.19 0.41c0.01,-0.32 0.08,-0.59 0.19,-0.79 0.11,-0.2 0.27,-0.35 0.45,-0.45 0.19,-0.1 0.39,-0.15 0.62,-0.15 0.21,0 0.4,0.04 0.58,0.12 0.17,0.08 0.32,0.19 0.45,0.33 0.13,0.14 0.22,0.3 0.29,0.48 0.07,0.18 0.1,0.38 0.1,0.59l0 0.1c0,0.21 -0.03,0.41 -0.1,0.59 -0.07,0.19 -0.17,0.35 -0.3,0.49 -0.13,0.14 -0.28,0.25 -0.46,0.34 -0.18,0.08 -0.38,0.12 -0.6,0.12zm-0.06 -0.47c0.2,0 0.37,-0.05 0.52,-0.14 0.15,-0.1 0.26,-0.23 0.34,-0.4 0.08,-0.17 0.12,-0.36 0.12,-0.59 0,-0.22 -0.04,-0.42 -0.13,-0.58 -0.08,-0.17 -0.2,-0.3 -0.35,-0.39 -0.15,-0.09 -0.32,-0.14 -0.52,-0.14 -0.18,0 -0.34,0.04 -0.49,0.12 -0.15,0.08 -0.27,0.19 -0.36,0.34 -0.09,0.15 -0.14,0.33 -0.14,0.54l0 0.26c0,0.2 0.05,0.38 0.14,0.52 0.09,0.14 0.21,0.26 0.37,0.33 0.15,0.08 0.31,0.12 0.49,0.12zm2.14 0.37l0 -2.97 0.42 0 0 1.22 -0.02 0c0,-0.43 0.1,-0.75 0.29,-0.95 0.19,-0.2 0.48,-0.3 0.86,-0.3l0.1 0 0 0.48 -0.19 0c-0.3,0 -0.52,0.08 -0.68,0.24 -0.16,0.16 -0.24,0.38 -0.24,0.68l0 1.61 -0.53 0zm2.24 0l0 -2.97 0.53 0 0 2.97 -0.53 0zm-0.46 -2.55l0 -0.42 0.99 0 0 0.42 -0.99 0zm0.61 -0.9c-0.12,0 -0.21,-0.03 -0.26,-0.09 -0.06,-0.06 -0.09,-0.14 -0.09,-0.24 0,-0.1 0.03,-0.18 0.09,-0.24 0.06,-0.06 0.15,-0.09 0.26,-0.09 0.12,0 0.21,0.03 0.26,0.09 0.06,0.06 0.09,0.14 0.09,0.24 0,0.1 -0.03,0.18 -0.09,0.24 -0.06,0.06 -0.15,0.09 -0.26,0.09zm2.51 3.55c-0.26,0 -0.48,-0.04 -0.66,-0.13 -0.19,-0.09 -0.34,-0.21 -0.46,-0.36 -0.12,-0.15 -0.21,-0.32 -0.28,-0.5 -0.06,-0.18 -0.09,-0.36 -0.09,-0.54l0 -0.1c0,-0.19 0.03,-0.37 0.09,-0.56 0.06,-0.18 0.15,-0.35 0.28,-0.49 0.12,-0.15 0.28,-0.26 0.46,-0.35 0.19,-0.09 0.4,-0.13 0.65,-0.13 0.25,0 0.47,0.05 0.67,0.14 0.2,0.09 0.36,0.22 0.48,0.39 0.12,0.17 0.19,0.37 0.2,0.6l-0.51 0c-0.03,-0.19 -0.11,-0.34 -0.26,-0.46 -0.14,-0.12 -0.34,-0.19 -0.58,-0.19 -0.21,0 -0.39,0.05 -0.53,0.14 -0.14,0.1 -0.25,0.23 -0.32,0.39 -0.07,0.17 -0.11,0.36 -0.11,0.57 0,0.2 0.04,0.39 0.11,0.56 0.07,0.17 0.18,0.3 0.32,0.4 0.14,0.1 0.32,0.15 0.54,0.15 0.17,0 0.31,-0.03 0.43,-0.09 0.12,-0.06 0.22,-0.14 0.29,-0.24 0.07,-0.1 0.12,-0.21 0.13,-0.34l0.51 0c-0.01,0.23 -0.08,0.44 -0.2,0.61 -0.12,0.17 -0.29,0.3 -0.49,0.4 -0.2,0.09 -0.43,0.14 -0.68,0.14zm3.71 -0.1l0 -0.89 -0.09 0 0 -1.03c0,-0.2 -0.05,-0.36 -0.16,-0.46 -0.11,-0.1 -0.26,-0.16 -0.46,-0.16 -0.11,0 -0.23,0 -0.36,0.01 -0.12,0 -0.24,0.01 -0.35,0.01 -0.11,0 -0.21,0.01 -0.29,0.02l0 -0.47c0.08,-0.01 0.17,-0.01 0.26,-0.02 0.09,-0.01 0.18,-0.01 0.28,-0.01 0.1,-0 0.19,-0 0.28,-0 0.3,0 0.55,0.04 0.74,0.11 0.19,0.07 0.34,0.19 0.43,0.35 0.09,0.16 0.14,0.38 0.14,0.66l0 1.88 -0.42 0zm-0.97 0.08c-0.22,0 -0.41,-0.04 -0.58,-0.11 -0.16,-0.08 -0.29,-0.19 -0.37,-0.33 -0.09,-0.14 -0.13,-0.32 -0.13,-0.52 0,-0.21 0.05,-0.39 0.14,-0.53 0.09,-0.14 0.23,-0.25 0.41,-0.32 0.18,-0.07 0.4,-0.11 0.66,-0.11l0.81 0 0 0.4 -0.83 0c-0.22,0 -0.38,0.05 -0.49,0.16 -0.11,0.1 -0.17,0.24 -0.17,0.4 0,0.16 0.06,0.29 0.17,0.39 0.11,0.1 0.28,0.15 0.49,0.15 0.13,0 0.25,-0.02 0.36,-0.07 0.11,-0.05 0.21,-0.12 0.29,-0.23 0.08,-0.11 0.12,-0.26 0.12,-0.45l0.14 0.21c-0.02,0.21 -0.07,0.39 -0.15,0.53 -0.08,0.14 -0.2,0.25 -0.34,0.33 -0.15,0.07 -0.32,0.11 -0.53,0.11zm3.16 0.01c-0.39,0 -0.69,-0.08 -0.9,-0.25 -0.21,-0.17 -0.32,-0.39 -0.33,-0.68l0.5 0c0.01,0.11 0.07,0.22 0.18,0.33 0.11,0.1 0.3,0.15 0.56,0.15 0.24,0 0.42,-0.05 0.54,-0.14 0.13,-0.09 0.19,-0.21 0.19,-0.35 0,-0.12 -0.05,-0.22 -0.14,-0.29 -0.09,-0.07 -0.24,-0.11 -0.45,-0.14l-0.32 -0.03c-0.28,-0.03 -0.51,-0.11 -0.69,-0.25 -0.18,-0.14 -0.27,-0.33 -0.27,-0.59 0,-0.19 0.05,-0.35 0.14,-0.49 0.1,-0.14 0.23,-0.24 0.4,-0.31 0.17,-0.07 0.37,-0.11 0.59,-0.11 0.33,0 0.6,0.07 0.81,0.22 0.21,0.15 0.32,0.37 0.32,0.66l-0.5 0c-0,-0.12 -0.06,-0.22 -0.16,-0.3 -0.11,-0.08 -0.26,-0.13 -0.47,-0.13 -0.21,0 -0.36,0.04 -0.47,0.13 -0.11,0.09 -0.16,0.19 -0.16,0.32 0,0.11 0.04,0.2 0.11,0.27 0.08,0.07 0.2,0.11 0.38,0.13l0.32 0.03c0.32,0.03 0.57,0.12 0.77,0.26 0.19,0.14 0.29,0.34 0.29,0.6 0,0.19 -0.05,0.35 -0.16,0.49 -0.11,0.14 -0.25,0.25 -0.44,0.33 -0.19,0.08 -0.4,0.12 -0.64,0.12z"/>
  <path class="fil0" d="M24.89 12.23l0 -4.06 1.5 0 1.53 3.32 0.19 0 -0.11 0.1 0 -3.42 0.86 0 0 4.06 -1.51 0 -1.53 -3.32 -0.19 0 0.11 -0.1 0 3.42 -0.84 0zm6.49 0l0 -0.9 -0.15 0 0 -0.98c0,-0.16 -0.04,-0.27 -0.11,-0.35 -0.07,-0.08 -0.19,-0.12 -0.36,-0.12 -0.08,0 -0.19,0 -0.32,0.01 -0.13,0 -0.27,0.01 -0.41,0.02 -0.14,0.01 -0.27,0.01 -0.38,0.02l0 -0.75c0.09,-0.01 0.19,-0.01 0.3,-0.02 0.11,-0.01 0.23,-0.01 0.36,-0.02 0.12,-0 0.24,-0.01 0.34,-0.01 0.31,0 0.57,0.04 0.79,0.13 0.21,0.09 0.38,0.22 0.49,0.4 0.11,0.18 0.17,0.41 0.17,0.69l0 1.87 -0.71 0zm-0.97 0.08c-0.22,0 -0.41,-0.04 -0.58,-0.12 -0.16,-0.08 -0.29,-0.19 -0.39,-0.34 -0.09,-0.15 -0.14,-0.32 -0.14,-0.53 0,-0.22 0.06,-0.4 0.17,-0.55 0.11,-0.14 0.28,-0.25 0.48,-0.32 0.21,-0.07 0.45,-0.1 0.72,-0.1l0.65 0 0 0.49 -0.66 0c-0.16,0 -0.27,0.04 -0.36,0.11 -0.08,0.08 -0.13,0.18 -0.13,0.31 0,0.12 0.04,0.22 0.13,0.3 0.08,0.08 0.2,0.11 0.36,0.11 0.1,0 0.19,-0.02 0.27,-0.05 0.08,-0.04 0.15,-0.1 0.2,-0.18 0.05,-0.09 0.08,-0.2 0.09,-0.36l0.21 0.22c-0.02,0.21 -0.07,0.39 -0.15,0.53 -0.08,0.14 -0.2,0.26 -0.34,0.33 -0.15,0.08 -0.33,0.12 -0.54,0.12zm3.63 0.03c-0.26,0 -0.49,-0.04 -0.69,-0.13 -0.19,-0.09 -0.36,-0.2 -0.49,-0.35 -0.13,-0.15 -0.23,-0.32 -0.29,-0.5 -0.06,-0.19 -0.09,-0.38 -0.09,-0.58l0 -0.11c0,-0.21 0.03,-0.41 0.1,-0.6 0.07,-0.19 0.16,-0.36 0.29,-0.51 0.13,-0.15 0.29,-0.26 0.49,-0.35 0.19,-0.09 0.42,-0.13 0.67,-0.13 0.27,0 0.52,0.05 0.73,0.16 0.21,0.11 0.38,0.25 0.51,0.44 0.13,0.19 0.2,0.41 0.21,0.65l-0.87 0c-0.01,-0.14 -0.07,-0.25 -0.16,-0.35 -0.09,-0.09 -0.23,-0.14 -0.41,-0.14 -0.15,0 -0.27,0.04 -0.37,0.11 -0.1,0.07 -0.17,0.18 -0.22,0.31 -0.05,0.13 -0.07,0.28 -0.07,0.46 0,0.16 0.02,0.31 0.07,0.44 0.04,0.13 0.12,0.23 0.21,0.31 0.1,0.07 0.23,0.11 0.39,0.11 0.12,0 0.22,-0.02 0.3,-0.06 0.08,-0.04 0.15,-0.1 0.2,-0.18 0.05,-0.08 0.08,-0.16 0.09,-0.26l0.87 0c-0.01,0.25 -0.08,0.47 -0.21,0.66 -0.13,0.19 -0.3,0.34 -0.52,0.44 -0.21,0.11 -0.46,0.16 -0.73,0.16zm2 -0.11l0 -3.05 0.89 0.01 0 3.04 -0.89 0zm-0.41 -2.39l0 -0.66 1.3 0.01 0 0.65 -1.3 0zm0.75 -0.96c-0.17,0 -0.29,-0.04 -0.37,-0.13 -0.08,-0.09 -0.12,-0.2 -0.12,-0.33 0,-0.14 0.04,-0.25 0.12,-0.33 0.08,-0.09 0.2,-0.13 0.37,-0.13 0.17,0 0.29,0.04 0.37,0.13 0.08,0.09 0.12,0.2 0.11,0.34 0,0.13 -0.03,0.24 -0.11,0.33 -0.08,0.09 -0.2,0.13 -0.37,0.13zm2.68 3.45c-0.27,0 -0.5,-0.04 -0.71,-0.13 -0.21,-0.08 -0.38,-0.2 -0.53,-0.34 -0.14,-0.14 -0.25,-0.31 -0.33,-0.5 -0.07,-0.19 -0.11,-0.38 -0.11,-0.59l0 -0.13c0,-0.21 0.04,-0.41 0.11,-0.6 0.08,-0.19 0.19,-0.36 0.33,-0.5 0.15,-0.14 0.32,-0.26 0.53,-0.34 0.21,-0.08 0.44,-0.13 0.69,-0.13 0.26,0 0.5,0.04 0.7,0.13 0.21,0.08 0.38,0.2 0.53,0.34 0.14,0.14 0.26,0.31 0.33,0.5 0.08,0.19 0.12,0.39 0.12,0.6l0 0.13c0,0.21 -0.04,0.4 -0.11,0.59 -0.07,0.19 -0.18,0.35 -0.33,0.5 -0.14,0.14 -0.32,0.26 -0.53,0.34 -0.21,0.08 -0.45,0.13 -0.72,0.13zm0 -0.75c0.17,0 0.32,-0.04 0.43,-0.11 0.11,-0.07 0.2,-0.18 0.26,-0.31 0.06,-0.13 0.09,-0.28 0.09,-0.44 0,-0.17 -0.03,-0.33 -0.09,-0.46 -0.06,-0.13 -0.15,-0.24 -0.27,-0.31 -0.12,-0.08 -0.26,-0.12 -0.43,-0.12 -0.16,0 -0.3,0.04 -0.42,0.12 -0.12,0.08 -0.21,0.18 -0.27,0.31 -0.06,0.13 -0.09,0.28 -0.09,0.46 0,0.16 0.03,0.31 0.09,0.44 0.06,0.13 0.15,0.24 0.27,0.31 0.12,0.07 0.26,0.11 0.43,0.11zm2.13 0.64l0 -3.05 0.71 0 0 1.31 -0.05 0c0,-0.31 0.04,-0.57 0.12,-0.78 0.08,-0.21 0.2,-0.36 0.36,-0.47 0.16,-0.1 0.36,-0.16 0.59,-0.16l0.04 0c0.36,0 0.63,0.12 0.81,0.35 0.19,0.23 0.28,0.58 0.28,1.05l0 1.74 -0.89 0 0 -1.79c0,-0.16 -0.05,-0.3 -0.14,-0.4 -0.1,-0.1 -0.23,-0.16 -0.39,-0.16 -0.17,0 -0.3,0.05 -0.4,0.16 -0.1,0.11 -0.15,0.24 -0.15,0.41l0 1.77 -0.89 0zm5.3 0l0 -0.9 -0.15 0 0 -0.98c0,-0.16 -0.04,-0.27 -0.11,-0.35 -0.07,-0.08 -0.19,-0.12 -0.36,-0.12 -0.08,0 -0.19,0 -0.32,0.01 -0.13,0 -0.27,0.01 -0.41,0.02 -0.14,0.01 -0.27,0.01 -0.38,0.02l0 -0.75c0.09,-0.01 0.19,-0.01 0.3,-0.02 0.11,-0.01 0.23,-0.01 0.36,-0.02 0.12,-0 0.24,-0.01 0.34,-0.01 0.31,0 0.57,0.04 0.79,0.13 0.21,0.09 0.38,0.22 0.49,0.4 0.11,0.18 0.17,0.41 0.17,0.69l0 1.87 -0.71 0zm-0.97 0.08c-0.22,0 -0.41,-0.04 -0.58,-0.12 -0.16,-0.08 -0.29,-0.19 -0.39,-0.34 -0.09,-0.15 -0.14,-0.32 -0.14,-0.53 0,-0.22 0.06,-0.4 0.17,-0.55 0.11,-0.14 0.28,-0.25 0.48,-0.32 0.21,-0.07 0.45,-0.1 0.72,-0.1l0.65 0 0 0.49 -0.66 0c-0.16,0 -0.27,0.04 -0.36,0.11 -0.08,0.08 -0.13,0.18 -0.13,0.31 0,0.12 0.04,0.22 0.13,0.3 0.08,0.08 0.2,0.11 0.36,0.11 0.1,0 0.19,-0.02 0.27,-0.05 0.08,-0.04 0.15,-0.1 0.2,-0.18 0.05,-0.09 0.08,-0.2 0.09,-0.36l0.21 0.22c-0.02,0.21 -0.07,0.39 -0.15,0.53 -0.08,0.14 -0.2,0.26 -0.34,0.33 -0.15,0.08 -0.33,0.12 -0.54,0.12zm2.3 -0.08l0 -4.06 0.89 0 0.01 4.06 -0.89 0zm-0.36 -3.4l0 -0.66 1.25 0 0.01 0.66 -1.26 0z"/>
  <circle class="fil1" cx="46.3" cy="17.02" r="0.32"/>
  <g id="_2832888615568">
   <path class="fil1" d="M1.45 0.1c5.06,0.49 9.32,2.5 12.72,5.63 1.22,1.13 2.22,0.7 2.22,-0.97l0 -3.44c0,-0.73 0.59,-1.32 1.32,-1.32l2.48 0c0.73,0 1.32,0.59 1.32,1.32l0 14.82c0,0.73 -0.59,1.32 -1.32,1.32l-3.79 0c-0.45,0 -0.99,-0.33 -1.19,-0.74 -2.98,-6.16 -7.35,-10.35 -14.04,-11.09 -0.64,-0.07 -1.17,-0.66 -1.17,-1.31l0 -2.91c0,-0.8 0.65,-1.39 1.45,-1.31z"/>
   <path class="fil1" d="M0.65 10.33c3.97,0.25 7.32,2.78 8.77,6.29 0.19,0.46 -0.06,0.84 -0.56,0.84l-8.25 0c-0.33,0 -0.61,-0.27 -0.61,-0.61l0 -5.91c0,-0.36 0.29,-0.63 0.65,-0.6z"/>
  </g>
 </g>
</svg>
