<?xml version="1.0" encoding="UTF-8"?>
<!DOCTYPE svg PUBLIC "-//W3C//DTD SVG 1.1//EN" "http://www.w3.org/Graphics/SVG/1.1/DTD/svg11.dtd">
<!-- Creator: CorelDRAW -->
<svg xmlns="http://www.w3.org/2000/svg" xml:space="preserve" width="8.7965mm" height="7.1418mm" version="1.1" style="shape-rendering:geometricPrecision; text-rendering:geometricPrecision; image-rendering:optimizeQuality; fill-rule:evenodd; clip-rule:evenodd"
viewBox="0 0 9.49 7.7"
 xmlns:xlink="http://www.w3.org/1999/xlink"
 xmlns:xodm="http://www.corel.com/coreldraw/odm/2003">
 <defs>
  <style type="text/css">
   <![CDATA[
    .fil0 {fill:#5BBB61}
   ]]>
  </style>
 </defs>
 <g id="Camada_x0020_1">
  <metadata id="CorelCorpID_0Corel-Layer"/>
  <g id="_2869676623904">
   <path class="fil0" d="M0.64 0.04c2.23,0.22 4.11,1.1 5.61,2.48 0.54,0.5 0.98,0.31 0.98,-0.43l0 -1.52c0,-0.32 0.26,-0.58 0.58,-0.58l1.1 0c0.32,0 0.58,0.26 0.58,0.58l0 6.54c0,0.32 -0.26,0.58 -0.58,0.58l-1.67 0c-0.2,0 -0.44,-0.15 -0.52,-0.33 -1.32,-2.72 -3.24,-4.57 -6.19,-4.89 -0.28,-0.03 -0.52,-0.29 -0.52,-0.58l0 -1.28c0,-0.35 0.29,-0.61 0.64,-0.58z"/>
   <path class="fil0" d="M0.29 4.56c1.75,0.11 3.23,1.22 3.87,2.77 0.08,0.2 -0.03,0.37 -0.25,0.37l-3.64 0c-0.15,0 -0.27,-0.12 -0.27,-0.27l0 -2.61c0,-0.16 0.13,-0.28 0.29,-0.27z"/>
  </g>
 </g>
</svg>
